<svg width="39" height="92" viewBox="0 0 39 92" fill="none" xmlns="http://www.w3.org/2000/svg">
<path d="M37.951 88.4994C36.1506 88.1022 34.36 87.5233 32.4758 86.7298C32.4533 86.7192 32.3974 86.6561 32.3799 86.5994C32.1921 85.9599 32.1292 85.3157 32.187 84.6297C32.556 80.2503 29.9454 75.6358 25.9805 73.6575C25.8962 73.6147 25.8083 73.5777 25.707 73.5363L25.613 73.4974C25.5236 73.4593 25.4149 73.4751 25.3428 73.5329C25.2649 73.593 25.2262 73.6908 25.2421 73.7889L25.3506 74.4604C25.4469 75.0546 25.5412 75.6361 25.6316 76.2181L25.6544 76.3704C25.909 78.0243 26.1722 79.7347 26.6849 81.3779C27.1476 82.8604 27.8615 84.0302 28.8545 84.9265C26.7567 83.6908 24.8019 82.2058 23.0266 80.4979C22.9893 80.4621 22.9451 80.3671 22.9387 80.2887L22.8911 79.1166C22.8908 79.0749 22.8903 78.9643 22.9139 78.9096C23.7884 76.8745 24.0124 74.5838 23.5992 71.907C23.2008 69.3253 22.0974 66.9512 20.3192 64.8503C20.1111 64.6043 19.9275 64.4798 19.7734 64.4798C19.7358 64.4798 19.7019 64.4873 19.6752 64.5012C19.5934 64.5418 19.538 64.6205 19.5271 64.7113L19.4796 65.1202C19.4428 65.4237 19.4075 65.7216 19.3758 66.0201C19.321 66.546 19.2609 67.071 19.2005 67.5963L19.1919 67.6722C19.0416 68.9837 18.8858 70.34 18.8035 71.698C18.7078 73.2822 18.7362 75.1324 19.6735 76.844C19.6785 76.8526 19.6829 76.8617 19.688 76.8704C18.385 75.2428 17.1956 73.4912 16.1345 71.6352C16.0408 71.4701 16.0327 71.3253 16.0502 71.1152C16.1256 70.2266 16.539 69.5046 16.9745 68.857C17.8155 67.603 18.3247 66.1207 18.6254 64.0507C19.0458 61.1557 18.6213 58.2516 17.3643 55.4184C17.3298 55.3403 17.2894 55.2649 17.2463 55.1841L17.1481 54.999C17.1011 54.9086 17.0006 54.8491 16.8946 54.8539C16.7889 54.8594 16.6957 54.9264 16.6573 55.0237C16.3524 55.7919 16.0574 56.532 15.7645 57.2666L15.5772 57.736C14.9524 59.3039 14.2515 61.1343 13.8442 63.0229C13.5571 64.3556 13.5395 65.6419 13.7913 66.8664C12.8142 64.5432 12.011 62.0882 11.3958 59.5426C11.3889 59.5143 11.3867 59.4409 11.4476 59.2716C11.7353 58.4851 12.2592 57.7719 12.923 57.2635C14.3762 56.1502 15.2005 54.6026 15.8151 53.2357C17.0735 50.4403 17.4149 47.4706 16.8584 44.1562C16.8526 44.1215 16.842 44.087 16.8295 44.0495L16.8195 44.0195C16.7953 43.9453 16.7402 43.8852 16.6673 43.8538C16.5961 43.8241 16.5065 43.8296 16.4511 43.8569C16.3955 43.8772 16.3112 43.908 16.2564 43.9883C15.9414 44.4086 15.6218 44.8327 15.3018 45.2566L15.2481 45.328C14.4413 46.3983 13.6069 47.5045 12.805 48.6065C11.8761 49.8797 11.22 51.1173 10.7991 52.3903C10.596 53.0051 10.4632 53.5968 10.4006 54.1715C10.1333 52.1062 9.98165 49.9975 9.94854 47.8713C9.94075 47.3638 10.0053 46.9606 10.3522 46.5189C10.7195 46.0481 11.0625 45.7852 11.5355 45.6118C13.4789 44.9025 14.7256 43.4036 15.5945 42.177C16.9981 40.1929 17.8214 37.8841 18.1113 35.1186C18.1422 34.834 18.1597 34.5461 18.1778 34.2415L18.1822 34.1723C18.1908 34.0241 18.2 33.8699 18.2117 33.7065C18.2189 33.5981 18.1608 33.4964 18.0637 33.4472C17.9697 33.3999 17.8492 33.4138 17.7674 33.483L17.5367 33.6803C17.4499 33.7543 17.3757 33.8176 17.2986 33.8793C16.9283 34.1765 16.5566 34.4705 16.184 34.7654L16.1451 34.796C15.3274 35.443 14.4816 36.112 13.6739 36.8029C12.1067 38.1381 11.0976 39.4672 10.498 40.9861C10.399 41.2365 10.3122 41.4842 10.2376 41.7293C10.4841 39.3157 10.8845 36.9388 11.4342 34.6328C11.501 34.3507 11.5383 34.2679 11.6755 34.2229C11.7617 34.1937 11.8421 34.1375 11.9008 34.0681C12.2995 33.6153 12.8245 33.5436 13.3331 33.5333C15.0303 33.4936 16.3763 32.6478 17.4689 31.8257C20.1479 29.8101 21.9925 24.6961 21.9925 24.5227C21.9925 24.4324 21.9474 24.3482 21.8709 24.2973C21.7955 24.2476 21.6937 24.2406 21.6169 24.2748C21.0588 24.5113 20.5006 24.7417 19.9228 24.9805C18.6513 25.5072 17.3367 26.0514 16.0741 26.6464C14.8035 27.247 13.7994 28.0502 13.0816 29.0386C13.7657 27.0967 14.5589 25.1928 15.447 23.3632C15.5491 23.1658 16.0288 22.9563 16.7166 22.9563C16.9402 22.9563 17.157 22.9802 17.3442 23.0252C18.9601 23.4121 20.5624 23.1775 22.3358 22.2923C24.1501 21.3862 25.6552 19.9049 26.9373 17.7623C26.9618 17.7209 27.0099 17.5944 27.0358 17.5235C27.0683 17.4368 27.0553 17.3412 27.0013 17.2687C26.9512 17.1997 26.8711 17.1586 26.769 17.1586C26.7681 17.1586 26.7676 17.1586 26.7667 17.1586L26.1263 17.1989C25.7337 17.2236 25.3525 17.2478 24.9714 17.2673L24.5643 17.2878C23.3491 17.349 22.0921 17.4118 20.8623 17.7045C19.4598 18.0413 18.4301 18.5585 17.6405 19.3256C18.5751 17.7717 19.5758 16.2931 20.63 14.9082C20.6584 14.8715 20.7944 14.8153 20.906 14.7967C20.9617 14.7837 21.1642 14.7411 21.4335 14.7411C21.7908 14.7411 22.1035 14.8137 22.3686 14.9593C24.0532 15.7823 25.9452 15.8434 27.9993 15.1386C29.6842 14.5635 31.1112 13.4954 32.362 11.8742C32.4027 11.822 32.4394 11.765 32.4728 11.705C32.5109 11.6358 32.5134 11.5596 32.48 11.4901C32.3832 11.2873 31.9642 11.1919 31.7878 11.1602C31.3549 11.0846 30.8644 10.9985 30.3781 10.9326C30.1552 10.9015 29.9321 10.869 29.7084 10.8359L29.6797 10.8314C28.9218 10.7197 28.1384 10.6041 27.3491 10.5643C25.9068 10.4907 24.6261 10.7847 23.578 11.4357C24.2828 10.6864 25.0028 9.9754 25.734 9.30753C25.9652 9.09686 26.2267 8.88452 26.5831 8.61798C26.6107 8.59685 26.6808 8.57212 26.7667 8.56712C29.2927 8.46845 31.3947 7.35449 33.192 5.16215C34.171 3.96871 34.9217 2.46342 35.4873 0.560132L35.5068 0.494817C35.5672 0.294705 35.6005 0.184643 35.4617 0.055682C35.3546 -0.0438182 35.166 -0.0143564 34.6757 0.179641C34.2306 0.35057 33.7826 0.516497 33.3227 0.68687C32.3988 1.02901 31.4431 1.38281 30.5208 1.78248C28.9794 2.45175 27.7486 3.4662 26.863 4.79723C26.1886 5.81002 25.9221 6.82753 26.0475 7.90258C26.0467 7.91453 26.0361 7.94315 26.0345 7.94649C24.4255 9.33421 22.8875 10.8965 21.3083 12.7559C22.3614 11.1475 23.0478 9.29558 23.3922 7.14882C23.7394 4.98455 23.7614 3.0582 23.4598 1.25997C23.4406 1.1474 23.4147 1.03484 23.3816 0.89393L23.3324 0.676863C23.3101 0.583756 23.24 0.508436 23.1479 0.479531C23.0558 0.452293 22.9526 0.476473 22.8839 0.541788C22.7737 0.645457 22.6658 0.74329 22.5603 0.838343L22.486 0.905325C22.2162 1.14824 21.9613 1.37753 21.7307 1.63685C19.4896 4.16243 18.1825 6.83003 17.7348 9.79225C17.5309 11.1311 17.6155 12.2709 17.9936 13.2759C18.1188 13.6088 18.3141 13.9062 18.5086 14.2014C18.5976 14.3362 18.6866 14.4715 18.7682 14.6105C18.8283 14.7103 18.8333 14.7361 18.833 14.7314C18.796 15.1275 18.7428 15.5688 18.6711 16.0986C18.668 16.1052 18.658 16.1208 18.626 16.163L18.6001 16.1989C17.3745 17.9007 16.2439 19.6947 15.2264 21.5516C15.6265 20.1647 15.945 18.4093 15.9225 16.3695C15.8952 13.9229 15.3313 11.7408 14.1978 9.69775C14.153 9.61826 14.0718 9.56657 13.958 9.55878C13.8754 9.55878 13.7958 9.59964 13.7438 9.6694C13.7098 9.71665 13.6753 9.76112 13.6425 9.80336C13.5693 9.89786 13.5009 9.98736 13.4397 10.083C12.5371 11.4968 12.053 13.0557 11.7317 14.2561C11.1443 16.4576 10.8745 18.2959 10.8823 20.0416C10.8867 21.5255 11.1574 22.6661 11.7344 23.6314C11.9139 23.9318 12.1398 24.1948 12.3668 24.4593C12.4873 24.5997 12.6111 24.744 12.7232 24.8918C12.8017 24.9946 12.8395 25.0994 12.8418 25.1578C12.8565 25.5097 12.8487 25.8674 12.8412 26.2131L12.8359 26.4521C12.8351 26.4933 12.8256 26.5405 12.8114 26.5766C12.0869 28.3301 11.4501 30.1525 10.907 32.0241C10.9869 31.3868 11.0319 30.7698 11.0433 30.1678C11.109 26.7509 10.0598 23.6995 7.9242 21.0972L7.47905 20.5555C7.42758 20.4918 7.35134 20.4557 7.2701 20.4557L7.22559 20.4596C7.13044 20.4755 7.05031 20.5413 7.0172 20.6311C6.97658 20.7392 6.93679 20.8412 6.89812 20.9399C6.82356 21.1305 6.75317 21.3112 6.69363 21.4949C6.2354 22.9288 6.01059 24.4952 5.96497 26.573L5.96413 26.6136C5.92991 28.1253 5.88289 30.1962 6.50444 32.1778C7.11625 34.1287 8.19519 35.1145 8.40441 35.2915L8.42667 35.3115C8.99619 35.8193 9.36706 36.2837 9.44385 36.5853C9.47473 36.707 9.50617 36.8291 9.54289 36.9497C9.70537 37.4864 9.60382 37.9978 9.4942 38.55C9.43967 38.8288 9.38292 39.1167 9.36316 39.4122C9.2847 40.5945 9.18844 41.7968 9.09523 42.9594L9.08689 43.067C9.06296 43.3635 9.03903 43.6601 9.01539 43.9567C8.77778 41.2963 7.89582 38.878 6.3784 36.7393C5.44914 35.4308 4.34127 34.3113 3.08482 33.411C3.03057 33.3721 2.97353 33.3374 2.8973 33.2921C2.8603 33.2707 2.81745 33.2451 2.76542 33.2126C2.68696 33.1656 2.58625 33.1614 2.50528 33.2009C2.42237 33.2412 2.36534 33.3232 2.35588 33.416C2.33891 33.5842 2.31915 33.747 2.29829 33.916C2.25628 34.2621 2.21649 34.5889 2.21482 34.9247C2.19618 38.4049 2.93319 41.6662 4.40609 44.6167C4.81647 45.44 5.35872 46.1521 6.01838 46.734C6.67248 47.308 7.37833 47.6465 8.17488 47.7682C8.19241 47.7713 8.23414 47.7966 8.24054 47.8016C8.28366 47.888 8.32846 47.9747 8.37325 48.0617C8.53239 48.3688 8.69682 48.6865 8.77862 49.005C8.84678 49.2744 8.84678 49.5687 8.84678 49.8805C8.84678 49.9948 8.84678 50.1098 8.8504 50.2227C8.92691 52.9186 9.02735 53.8575 9.45915 56.2663C9.19567 55.5501 8.86487 54.8319 8.4378 54.141C6.70837 51.3447 4.51126 49.4467 1.72098 48.3391C1.54347 48.2677 1.36541 48.2163 1.15897 48.1562L1.1178 48.144C1.03405 48.1195 0.945298 48.0934 0.850424 48.0645C0.764732 48.0364 0.667077 48.0556 0.597243 48.1134C0.527688 48.171 0.491241 48.2591 0.500422 48.3508C0.52101 48.542 0.5352 48.7279 0.548276 48.9094C0.576933 49.3074 0.60392 49.6832 0.700463 50.0551C1.60079 53.529 3.09094 56.2958 5.25578 58.514C6.18142 59.4623 7.15687 60.0059 8.23776 60.1763C8.51041 60.2188 8.84372 60.2241 9.40796 60.1891L9.57044 60.1794C9.5952 60.178 9.6169 60.1766 9.63665 60.1766C9.68117 60.1766 9.68479 60.1766 9.71567 60.2222L10.4716 61.2591C10.4813 61.2727 10.4955 61.3219 10.5053 61.3558L10.5164 61.3931C11.301 64.0501 12.2745 66.6093 13.4224 69.0382C12.9058 68.3259 12.3396 67.6755 11.7086 67.0638C8.80672 64.2511 3.84548 64.1696 3.28931 64.1696L3.22004 64.1702L3.17635 64.1783C3.04003 64.2266 2.9663 64.3723 3.00831 64.5093C3.04698 64.6385 3.08315 64.7691 3.12461 64.9226C3.2039 65.2108 3.28625 65.5084 3.40171 65.7964C3.95148 67.1688 4.84262 68.489 6.20674 69.9526C7.14407 70.9559 8.20075 71.9735 9.57489 72.6169C11.0798 73.3228 12.4386 73.4951 13.7899 73.1494C14.0198 73.0891 14.2841 73.0126 14.5114 72.8653C14.6733 72.7617 14.7175 72.765 14.8767 72.8834C15.0653 73.0235 15.2659 73.1411 15.4607 73.255C15.5683 73.3181 15.6768 73.3817 15.7781 73.4457C15.7942 73.4593 15.8287 73.5157 15.8415 73.5366C17.054 75.5121 18.3898 77.3481 19.8321 79.023C19.0519 78.456 18.2509 78.0457 17.4001 77.7725C14.8002 76.9357 12.075 77.0421 9.37596 78.0847C8.9731 78.2406 8.53156 78.4768 8.50207 78.4935C8.4403 78.5341 8.39773 78.5997 8.38438 78.675C8.37269 78.7489 8.39189 78.8245 8.43696 78.8823C8.52126 78.9918 8.60278 79.1019 8.68347 79.2111L8.70127 79.235C8.88351 79.4829 9.08995 79.7634 9.32143 80.0118C10.3639 81.1283 11.6496 81.8768 12.8838 82.5194C14.5809 83.399 16.3165 83.8729 18.0426 83.9285C18.1238 83.9313 18.205 83.9329 18.286 83.9329C19.8738 83.9329 21.1133 83.4101 22.0687 82.3409C22.0804 82.3326 22.1218 82.3167 22.1446 82.3165C22.5097 82.3426 22.8566 82.3957 23.1159 82.4388C23.1568 82.446 23.2072 82.4704 23.2386 82.4988C24.8348 83.9104 26.5252 85.1494 28.2911 86.2039C28.0235 86.1247 27.7477 86.0558 27.4656 86.0005C25.5785 85.6381 23.6526 85.8654 21.5378 86.7048C20.1111 87.2729 18.7843 88.1075 17.4814 89.2562C17.374 89.3504 17.359 89.5124 17.4474 89.6247C17.9085 90.2109 18.5083 90.5391 19.0344 90.7826C20.3176 91.3782 21.766 91.7595 23.464 91.9491C23.469 91.9494 24.0146 91.9966 24.7797 91.9966C25.332 91.9966 25.8458 91.9719 26.3063 91.9232C26.7464 91.8771 27.1855 91.8018 27.6114 91.6995C29.5679 91.2237 30.8936 90.2454 31.6531 88.7265C31.6668 88.7134 31.7252 88.6795 31.7992 88.6614C32.1523 88.5739 32.47 88.5122 32.7721 88.4719C32.8434 88.4605 32.9321 88.4796 33.044 88.5247C34.395 89.0447 35.8248 89.478 37.2907 89.812C37.3113 89.8171 37.3327 89.8196 37.3542 89.8196C37.4527 89.8196 37.5434 89.7654 37.5912 89.677C37.7312 89.4168 37.9017 89.1673 38.0979 88.9352C38.1593 88.8621 38.1777 88.7648 38.1474 88.6748C38.1184 88.5875 38.045 88.5213 37.951 88.4994Z" fill="#1C1D28"/>
</svg>
