<svg width="15" height="16" viewBox="0 0 15 16" fill="none" xmlns="http://www.w3.org/2000/svg">
<path d="M7.93945 12.957H8.81836V15.3594H7.93945V12.957Z" fill="#FFEBB9"/>
<path d="M6.18164 12.957H7.06055V15.3594H6.18164V12.957Z" fill="#FFEBB9"/>
<path d="M10.459 0.359375H4.54102C4.29832 0.359375 4.10156 0.556133 4.10156 0.798828V15.3594H5.30273V12.5176C5.30273 12.2749 5.49949 12.0781 5.74219 12.0781H9.25781C9.50051 12.0781 9.69727 12.2749 9.69727 12.5176V15.3594H10.8984V0.798828C10.8984 0.556133 10.7017 0.359375 10.459 0.359375ZM6.18164 10.7598C6.18164 11.0025 5.98488 11.1992 5.74219 11.1992C5.49949 11.1992 5.30273 11.0025 5.30273 10.7598V9.88086C5.30273 9.63816 5.49949 9.44141 5.74219 9.44141C5.98488 9.44141 6.18164 9.63816 6.18164 9.88086V10.7598ZM6.18164 8.12305C6.18164 8.36574 5.98488 8.5625 5.74219 8.5625C5.49949 8.5625 5.30273 8.36574 5.30273 8.12305V7.24414C5.30273 7.00145 5.49949 6.80469 5.74219 6.80469C5.98488 6.80469 6.18164 7.00145 6.18164 7.24414V8.12305ZM7.93945 10.7598C7.93945 11.0025 7.7427 11.1992 7.5 11.1992C7.2573 11.1992 7.06055 11.0025 7.06055 10.7598V9.88086C7.06055 9.63816 7.2573 9.44141 7.5 9.44141C7.7427 9.44141 7.93945 9.63816 7.93945 9.88086V10.7598ZM7.93945 8.12305C7.93945 8.36574 7.7427 8.5625 7.5 8.5625C7.2573 8.5625 7.06055 8.36574 7.06055 8.12305V7.24414C7.06055 7.00145 7.2573 6.80469 7.5 6.80469C7.7427 6.80469 7.93945 7.00145 7.93945 7.24414V8.12305ZM9.69727 10.7598C9.69727 11.0025 9.50051 11.1992 9.25781 11.1992C9.01512 11.1992 8.81836 11.0025 8.81836 10.7598V9.88086C8.81836 9.63816 9.01512 9.44141 9.25781 9.44141C9.50051 9.44141 9.69727 9.63816 9.69727 9.88086V10.7598ZM9.69727 8.12305C9.69727 8.36574 9.50051 8.5625 9.25781 8.5625C9.01512 8.5625 8.81836 8.36574 8.81836 8.12305V7.24414C8.81836 7.00145 9.01512 6.80469 9.25781 6.80469C9.50051 6.80469 9.69727 7.00145 9.69727 7.24414V8.12305ZM6.18164 5.48633C6.18164 5.72902 5.98488 5.92578 5.74219 5.92578C5.49949 5.92578 5.30273 5.72902 5.30273 5.48633V4.60742C5.30273 4.36473 5.49949 4.16797 5.74219 4.16797C5.98488 4.16797 6.18164 4.36473 6.18164 4.60742V5.48633ZM7.93945 5.48633C7.93945 5.72902 7.7427 5.92578 7.5 5.92578C7.2573 5.92578 7.06055 5.72902 7.06055 5.48633V4.60742C7.06055 4.36473 7.2573 4.16797 7.5 4.16797C7.7427 4.16797 7.93945 4.36473 7.93945 4.60742V5.48633ZM9.69727 5.48633C9.69727 5.72902 9.50051 5.92578 9.25781 5.92578C9.01512 5.92578 8.81836 5.72902 8.81836 5.48633V4.60742C8.81836 4.36473 9.01512 4.16797 9.25781 4.16797C9.50051 4.16797 9.69727 4.36473 9.69727 4.60742V5.48633ZM6.18164 2.84961C6.18164 3.0923 5.98488 3.28906 5.74219 3.28906C5.49949 3.28906 5.30273 3.0923 5.30273 2.84961V1.9707C5.30273 1.72801 5.49949 1.53125 5.74219 1.53125C5.98488 1.53125 6.18164 1.72801 6.18164 1.9707V2.84961ZM7.93945 2.84961C7.93945 3.0923 7.7427 3.28906 7.5 3.28906C7.2573 3.28906 7.06055 3.0923 7.06055 2.84961V1.9707C7.06055 1.72801 7.2573 1.53125 7.5 1.53125C7.7427 1.53125 7.93945 1.72801 7.93945 1.9707V2.84961ZM9.69727 2.84961C9.69727 3.0923 9.50051 3.28906 9.25781 3.28906C9.01512 3.28906 8.81836 3.0923 8.81836 2.84961V1.9707C8.81836 1.72801 9.01512 1.53125 9.25781 1.53125C9.50051 1.53125 9.69727 1.72801 9.69727 1.9707V2.84961Z" fill="#FFEBB9"/>
<path d="M14.5605 6.21875H11.7773V15.3594H14.5605C14.8032 15.3594 15 15.1626 15 14.9199V6.6582C15 6.41551 14.8032 6.21875 14.5605 6.21875ZM13.8281 11.9316C13.8281 12.1743 13.6314 12.3711 13.3887 12.3711C13.146 12.3711 12.9492 12.1743 12.9492 11.9316V11.0527C12.9492 10.81 13.146 10.6133 13.3887 10.6133C13.6314 10.6133 13.8281 10.81 13.8281 11.0527V11.9316ZM13.8281 9.29492C13.8281 9.53762 13.6314 9.73438 13.3887 9.73438C13.146 9.73438 12.9492 9.53762 12.9492 9.29492V8.41602C12.9492 8.17332 13.146 7.97656 13.3887 7.97656C13.6314 7.97656 13.8281 8.17332 13.8281 8.41602V9.29492Z" fill="#FFEBB9"/>
<path d="M0.439453 6.21875C0.196758 6.21875 0 6.41551 0 6.6582V14.9199C0 15.1626 0.196758 15.3594 0.439453 15.3594H3.22266V6.21875H0.439453ZM2.05078 11.9316C2.05078 12.1743 1.85402 12.3711 1.61133 12.3711C1.36863 12.3711 1.17188 12.1743 1.17188 11.9316V11.0527C1.17188 10.81 1.36863 10.6133 1.61133 10.6133C1.85402 10.6133 2.05078 10.81 2.05078 11.0527V11.9316ZM2.05078 9.29492C2.05078 9.53762 1.85402 9.73438 1.61133 9.73438C1.36863 9.73438 1.17188 9.53762 1.17188 9.29492V8.41602C1.17188 8.17332 1.36863 7.97656 1.61133 7.97656C1.85402 7.97656 2.05078 8.17332 2.05078 8.41602V9.29492Z" fill="#FFEBB9"/>
</svg>
