<svg width="20" height="20" viewBox="0 0 20 20" fill="none" xmlns="http://www.w3.org/2000/svg">
<path d="M17.8737 14.1643V15.1432C17.8737 15.791 17.4432 16.345 16.8399 16.5613C16.8402 16.586 16.8408 16.6105 16.8408 16.6351V19.3044C18.0952 19.0571 19.0408 17.999 19.0408 16.7351V14.1641L17.8737 14.1643Z" fill="#FFEBB9"/>
<path d="M9.76751 6.80772V5.78417C9.76751 4.89818 9.42189 4.03945 8.794 3.36583C8.20623 2.73526 7.43306 2.33459 6.59765 2.22341C6.41271 2.05337 6.07503 1.74316 5.73644 1.43353C5.44362 1.16565 5.20955 0.952268 5.04033 0.799336C4.94329 0.711637 4.86196 0.638577 4.80428 0.587697C4.67809 0.476369 4.44341 0.268933 4.09566 0.40302L3.7235 0.546819L3.77233 2.74497L3.68062 2.80788C3.08217 3.21869 2.68132 3.851 2.57833 4.54506L0.981953 5.55673L0.976613 6.25181C0.972798 6.78192 1.18703 7.28087 1.5801 7.65703C1.97332 8.0332 2.497 8.24035 3.05501 8.24035H4.27068V9.25955C4.27068 9.76589 4.35628 10.2661 4.52474 10.7465L5.42592 13.3148V17.2159C4.48049 17.4269 3.77309 18.2345 3.77095 19.1957L3.76897 19.3576L7.24843 19.3581C7.34365 18.4924 8.01214 17.7856 8.88555 17.5883V16.908C8.88555 15.0467 10.4793 13.5326 12.4384 13.5326H12.5243V14.6414H12.4384C11.1229 14.6414 10.0527 15.6582 10.0527 16.908V18.642H9.38115C8.91942 18.642 8.53109 18.9483 8.42946 19.3582L15.7081 19.3594V16.6352C15.7081 14.2151 14.7532 11.9058 13.0193 10.1328L9.76751 6.80772Z" fill="#FFEBB9"/>
</svg>
