<svg width="43" height="46" viewBox="0 0 43 46" fill="none" xmlns="http://www.w3.org/2000/svg">
<path fill-rule="evenodd" clip-rule="evenodd" d="M8.69023 2.47014C8.70335 1.94815 8.72364 1.44733 8.7501 0.97168H32.7501C32.7766 1.44733 32.7968 1.94815 32.81 2.47014H42.2504V3.96859C42.2504 6.90972 41.537 11.4067 39.3751 15.4728C37.2235 19.5194 33.5868 23.212 27.7809 24.3728C26.4488 26.0465 24.7938 27.2484 22.7502 27.7215V33.9375C22.7502 37.1342 25.0835 38.5994 26.2502 38.9324H15.2502C18.0502 38.9324 18.7502 35.6025 18.7502 33.9375V27.7215C16.5902 27.2215 14.8643 25.9074 13.4949 24.0824C8.39589 22.6767 5.12141 19.2271 3.12527 15.4728C0.963359 11.4067 0.25 6.90972 0.25 3.96859V2.47014H8.69023ZM8.69503 5.46704H3.3147C3.51795 7.93722 4.22454 11.1515 5.77473 14.067C7.01676 16.403 8.77708 18.5134 11.2428 19.9282C9.50441 15.5378 8.82085 10.0697 8.69503 5.46704ZM29.9956 20.5622C33.136 19.1949 35.2813 16.7835 36.7256 14.067C38.2758 11.1515 38.9824 7.93722 39.1857 5.46704H32.8052C32.6732 10.294 31.9278 16.0729 29.9956 20.5622ZM12.7502 39.9313V45.4257H28.7502V39.9313H12.7502Z" fill="#F2C94C"/>
</svg>
