<svg width="50" height="48" viewBox="0 0 50 48" fill="none" xmlns="http://www.w3.org/2000/svg">
<path d="M38.1974 30.6313L49.3763 19.7457C49.7552 19.3766 49.8921 18.8241 49.7283 18.3213C49.5647 17.818 49.1295 17.4511 48.6054 17.3752L33.1577 15.1342L26.2481 1.15058C26.0138 0.676145 25.5302 0.375977 25.0008 0.375977C24.4713 0.375977 23.9875 0.676701 23.7535 1.15058L16.8464 15.1342L1.39623 17.3752C0.872338 17.4511 0.436923 17.8182 0.273329 18.3213C0.109456 18.8241 0.246063 19.3766 0.625278 19.7457L11.8042 30.6313L9.16667 46.0007C9.07708 46.5218 9.29159 47.0488 9.72005 47.3595C10.148 47.6705 10.7155 47.7117 11.1849 47.4654L25.0013 40.21L38.8178 47.4654C39.0212 47.5724 39.2435 47.6249 39.4647 47.6249C39.7532 47.6249 40.04 47.5355 40.2824 47.3595C40.7108 47.0491 40.9256 46.5218 40.8358 46.0007L38.1974 30.6313Z" fill="#F2C94C"/>
</svg>
