<svg width="35" height="51" viewBox="0 0 35 51" fill="none" xmlns="http://www.w3.org/2000/svg">
<path fill-rule="evenodd" clip-rule="evenodd" d="M32.25 15.962C32.25 24.2377 25.5343 30.9465 17.25 30.9465C8.96573 30.9465 2.25 24.2377 2.25 15.962C2.25 7.68632 8.96573 0.977539 17.25 0.977539C25.5343 0.977539 32.25 7.68632 32.25 15.962ZM17.7255 9.93159L18.9338 13.6465C19.0008 13.8525 19.1927 13.9919 19.4093 13.9919H23.3183C23.8028 13.9919 24.0041 14.6119 23.612 14.8965L20.4504 17.1912C20.275 17.3185 20.2016 17.5444 20.2686 17.7505L21.4765 21.464C21.6263 21.9245 21.0992 22.3078 20.7073 22.0233L17.5437 19.7272C17.3685 19.6 17.1315 19.6 16.9563 19.7272L13.7927 22.0233C13.4008 22.3078 12.8737 21.9245 13.0235 21.464L14.2314 17.7505C14.2984 17.5444 14.225 17.3185 14.0496 17.1912L10.888 14.8965C10.4959 14.6119 10.6972 13.9919 11.1817 13.9919H15.0907C15.3073 13.9919 15.4992 13.8525 15.5662 13.6465L16.7745 9.93159C16.9243 9.47112 17.5757 9.47112 17.7255 9.93159ZM0.25 47.4294L7.25 29.9475C10.05 31.9454 12.75 32.9444 16.25 33.4439L9.75 50.9257L6.75 44.4325L0.25 47.4294ZM34.25 47.4294L27.25 29.9475C24.45 31.9454 21.75 32.9444 18.25 33.4439L24.75 50.9257L27.75 44.4325L34.25 47.4294Z" fill="#F2C94C"/>
</svg>
