<svg width="37" height="56" viewBox="0 0 37 56" fill="none" xmlns="http://www.w3.org/2000/svg">
<path fill-rule="evenodd" clip-rule="evenodd" d="M20.6983 2.7302C19.8989 0.397225 16.5994 0.397225 15.8 2.7302C15.221 4.41989 13.1435 5.02808 11.7427 3.91992C9.80971 2.39076 7.03226 4.17164 7.62203 6.56472C8.04935 8.29861 6.63088 9.93353 4.85376 9.75793C2.40146 9.51561 1.02816 12.5152 2.81825 14.2087C4.11542 15.4359 3.80757 17.5774 2.21728 18.3896C0.0223223 19.5106 0.49301 22.7757 2.91477 23.2335C4.66938 23.5651 5.56868 25.5333 4.66991 27.0763C3.42959 29.2056 5.59305 31.6964 7.878 30.7736C9.53399 30.1048 11.3561 31.2736 11.4351 33.0578C11.5442 35.5208 14.7105 36.4486 16.1347 34.4362C17.1667 32.9781 19.3317 32.9781 20.3636 34.4362C21.7878 36.4486 24.9541 35.5208 25.0632 33.0578C25.1422 31.2736 26.9643 30.1048 28.6203 30.7736C30.9053 31.6964 33.0687 29.2056 31.8284 27.0763C30.9296 25.5333 31.8289 23.5651 33.5836 23.2335C36.0053 22.7757 36.476 19.5106 34.2811 18.3896C32.6908 17.5774 32.3829 15.4359 33.6801 14.2087C35.4702 12.5152 34.0969 9.51561 31.6446 9.75793C29.8675 9.93353 28.449 8.29861 28.8763 6.56472C29.4661 4.17164 26.6886 2.39076 24.7557 3.91992C23.3549 5.02808 21.2773 4.41989 20.6983 2.7302ZM18.2492 28.5486C23.772 28.5486 28.2492 24.076 28.2492 18.5589C28.2492 13.0418 23.772 8.56926 18.2492 8.56926C12.7263 8.56926 8.24917 13.0418 8.24917 18.5589C8.24917 24.076 12.7263 28.5486 18.2492 28.5486ZM24.249 18.5589C24.249 21.8692 21.5627 24.5527 18.249 24.5527C14.9353 24.5527 12.249 21.8692 12.249 18.5589C12.249 15.2486 14.9353 12.5651 18.249 12.5651C21.5627 12.5651 24.249 15.2486 24.249 18.5589ZM0.249023 52.0243L7.24902 34.5424C7.83349 34.9594 8.31616 35.5823 8.79125 36.1953C9.39236 36.971 9.98134 37.7311 10.749 38.0387C11.6101 38.3838 12.6576 38.2579 13.7375 38.1281C14.5793 38.0269 15.4408 37.9234 16.249 38.0387L9.74902 55.5206L6.74902 49.0274L0.249023 52.0243ZM36.249 52.0243L29.249 34.5424C28.6658 34.9585 28.1318 35.5334 27.6018 36.104C26.8524 36.9107 26.1109 37.709 25.249 38.0387C24.4372 38.3493 23.5168 38.2361 22.5596 38.1184C21.8007 38.0251 21.0186 37.9289 20.249 38.0387L26.749 55.5206L29.749 49.0274L36.249 52.0243Z" fill="#F2C94C"/>
</svg>
