<svg width="39" height="92" viewBox="0 0 39 92" fill="none" xmlns="http://www.w3.org/2000/svg">
<path d="M38.4024 48.1146C38.3322 48.0568 38.2304 48.0384 38.1511 48.0651C38.0543 48.0948 37.9656 48.1207 37.8818 48.1451L37.8409 48.1571C37.6345 48.2174 37.4561 48.2691 37.2795 48.34C34.4883 49.4478 32.291 51.3458 30.5615 54.1421C30.1345 54.833 29.8037 55.5512 29.5402 56.2675C29.9723 53.8583 30.0724 52.9198 30.1489 50.2241C30.1525 50.111 30.1525 49.9959 30.1525 49.8817C30.1525 49.5698 30.1525 49.2752 30.2207 49.0065C30.3025 48.6879 30.4669 48.3703 30.6261 48.0629C30.6709 47.9759 30.7157 47.8889 30.7527 47.8124C30.7655 47.7974 30.8069 47.7721 30.8231 47.7696C31.6213 47.6479 32.3271 47.3094 32.9815 46.7349C33.6409 46.1532 34.1831 45.4411 34.5935 44.6179C36.0664 41.6673 36.8034 38.4061 36.7848 34.9258C36.7831 34.59 36.7436 34.2632 36.7002 33.9077C36.6805 33.7485 36.6604 33.5856 36.6437 33.4169C36.6343 33.3243 36.5772 33.2421 36.4946 33.202C36.4131 33.1626 36.3146 33.1654 36.2322 33.2151C36.1824 33.2462 36.1399 33.2715 36.1012 33.294C36.0264 33.3385 35.9693 33.3733 35.9153 33.4122C34.6589 34.3118 33.5507 35.4319 32.6212 36.7404C31.1043 38.8791 30.2221 41.2974 29.9845 43.9578C29.9609 43.6612 29.9369 43.3647 29.913 43.0681L29.9046 42.9606C29.8114 41.798 29.7152 40.5956 29.6367 39.4133C29.617 39.114 29.5594 38.8227 29.5037 38.5409C29.3963 37.9992 29.2948 37.4875 29.4573 36.9514C29.4943 36.8302 29.5254 36.7082 29.5566 36.5864C29.6334 36.2849 30.0043 35.8205 30.5738 35.3127L30.5952 35.2935C30.8053 35.1156 31.8842 34.1295 32.4963 32.179C33.1175 30.1973 33.0705 28.1267 33.0363 26.6147L33.0355 26.5744C32.9898 24.4961 32.765 22.9299 32.3065 21.4955C32.2473 21.3121 32.1769 21.1311 32.1023 20.941C32.0637 20.8421 32.0241 20.7398 31.9835 20.6328C31.9501 20.5422 31.87 20.4763 31.7762 20.4607L31.7303 20.4566C31.6491 20.4566 31.5731 20.493 31.5217 20.5558L31.0762 21.098C28.9406 23.7001 27.8914 26.7518 27.9571 30.1687C27.9685 30.7704 28.0136 31.3877 28.0934 32.025C27.5506 30.1537 26.9141 28.3321 26.1901 26.5797C26.1751 26.5414 26.1654 26.4938 26.1642 26.4535L26.1592 26.214C26.1517 25.8682 26.1439 25.5105 26.1587 25.1587C26.1609 25.1003 26.1987 24.9955 26.2775 24.8924C26.3893 24.7448 26.5134 24.6006 26.642 24.4505C26.8609 24.1959 27.0871 23.933 27.2663 23.6328C27.8433 22.6673 28.1143 21.5266 28.1187 20.0427C28.1265 18.2959 27.8569 16.4577 27.2693 14.2573C26.9483 13.0569 26.4636 11.4974 25.5611 10.0835C25.4998 9.98849 25.4314 9.899 25.3585 9.80422C25.3257 9.76225 25.2912 9.71751 25.2561 9.66943C25.2049 9.60078 25.1343 9.56075 25.0202 9.56075C24.9292 9.56742 24.848 9.61912 24.8026 9.69944C23.6697 11.742 23.1055 13.924 23.0788 16.3704C23.056 18.4102 23.3748 20.1653 23.7746 21.5525C22.7571 19.6956 21.6265 17.9015 20.4009 16.1997L20.3728 16.1611C20.345 16.1242 20.3333 16.1061 20.3352 16.1189C20.2582 15.5683 20.2047 15.1278 20.1677 14.7442C20.1686 14.7384 20.1758 14.7061 20.2331 14.6105C20.3141 14.4727 20.4028 14.3376 20.4972 14.1947C20.6863 13.9074 20.8817 13.61 21.0069 13.277C21.3847 12.272 21.4695 11.1322 21.2656 9.79366C20.8179 6.83117 19.5106 4.16356 17.2698 1.63798C17.0391 1.37867 16.7843 1.14938 16.5147 0.907018L16.4401 0.839481C16.3347 0.744149 16.2265 0.646595 16.1171 0.543482C16.0476 0.477334 15.948 0.452598 15.8514 0.480947C15.7602 0.509852 15.6898 0.585449 15.6681 0.679391L15.6191 0.893956C15.5857 1.03626 15.5598 1.14854 15.5406 1.26138C15.239 3.05961 15.261 4.98569 15.6082 7.15024C15.9527 9.29699 16.6391 11.1486 17.6921 12.757C16.1129 10.8982 14.5769 9.33729 12.9715 7.95402C12.9643 7.94457 12.9537 7.91594 12.9529 7.90872C13.0784 6.82895 12.8118 5.81171 12.1374 4.79892C11.2519 3.4679 10.0213 2.45344 8.47994 1.78418C7.55764 1.38451 6.60194 1.0307 5.66629 0.684116C5.21807 0.517912 4.76985 0.352264 4.30828 0.174664C3.84449 -0.00960549 3.64612 -0.0424017 3.53845 0.0570984C3.39989 0.18606 3.43328 0.296122 3.49366 0.496234L3.51313 0.561547C4.07875 2.46483 4.82939 3.97012 5.80845 5.16329C7.60576 7.35591 9.70773 8.46986 12.2312 8.56825C12.3197 8.57353 12.3898 8.59799 12.4184 8.62023C12.7737 8.88593 13.0353 9.09855 13.2665 9.30922C13.9976 9.97682 14.7177 10.6881 15.4221 11.4371C14.3743 10.7867 13.0937 10.4932 11.6514 10.566C10.8621 10.6058 10.0786 10.7214 9.321 10.8331L9.29206 10.8376C9.06809 10.8704 8.84524 10.9029 8.62294 10.9343C8.13605 11.0002 7.64527 11.0863 7.2118 11.1619C7.03625 11.1933 6.61697 11.2887 6.52043 11.4918C6.48704 11.5613 6.48982 11.6375 6.52766 11.7067C6.56105 11.767 6.59777 11.8237 6.63784 11.8754C7.889 13.4971 9.31627 14.5652 11.0012 15.1403C13.0556 15.8451 14.9425 15.787 16.6379 14.9579C16.8972 14.8154 17.21 14.7431 17.5672 14.7431C17.8368 14.7431 18.0391 14.7856 18.1061 14.8009C18.2066 14.8176 18.3429 14.8737 18.3707 14.9099C19.4252 16.2948 20.4259 17.774 21.3605 19.3279C20.5709 18.5608 19.5412 18.0436 18.1384 17.7067C16.9089 17.414 15.6519 17.3512 14.4367 17.2901L14.0296 17.2695C13.6485 17.2501 13.2673 17.2259 12.8747 17.2011L12.2165 17.1606C12.1313 17.1606 12.0504 17.2017 12.0008 17.2701C11.946 17.3437 11.9329 17.4393 11.9652 17.5252C11.9916 17.5969 12.0398 17.7234 12.0645 17.7656C13.3463 19.9074 14.8515 21.3888 16.6655 22.2948C18.4389 23.1798 20.0411 23.4138 21.6573 23.0277C21.8443 22.9827 22.061 22.9588 22.285 22.9588C22.9725 22.9588 23.4519 23.1684 23.5526 23.3624C24.4418 25.1948 25.2353 27.0989 25.9197 29.0411C25.2019 28.0525 24.1981 27.2495 22.9271 26.6489C21.6646 26.0536 20.35 25.5094 19.0565 24.9738C18.5006 24.7443 17.9425 24.5138 17.3869 24.2782C17.3043 24.242 17.2066 24.2495 17.1296 24.3004C17.0539 24.3507 17.0088 24.4346 17.0088 24.525C17.0088 24.6984 18.8534 29.8126 21.5324 31.8279C22.6253 32.6501 23.9713 33.4958 25.6687 33.5356C26.1768 33.5458 26.702 33.6176 27.0988 34.0681C27.1594 34.1398 27.2398 34.1957 27.3275 34.2254C27.463 34.2699 27.5003 34.3527 27.567 34.6351C28.1168 36.9408 28.5172 39.3174 28.7637 41.7307C28.6891 41.4858 28.6026 41.2385 28.5033 40.9881C27.9037 39.4692 26.8946 38.1401 25.3276 36.8052C24.52 36.1142 23.6742 35.4452 22.8562 34.7979L22.8172 34.7674C22.4447 34.4725 22.073 34.1787 21.7024 33.8813C21.6259 33.8199 21.5513 33.7565 21.4648 33.6826L21.2336 33.4847C21.1526 33.4163 21.0322 33.4022 20.9376 33.4494C20.8405 33.4986 20.7823 33.6003 20.7898 33.709C20.8013 33.8721 20.8104 34.0264 20.8191 34.1745L20.8235 34.2437C20.8419 34.5486 20.8591 34.8363 20.89 35.1203C21.1799 37.8861 22.0032 40.1951 23.4068 42.1793C24.2757 43.4058 25.5221 44.905 27.4658 45.614C27.9387 45.7874 28.2818 46.0501 28.6493 46.5214C28.996 46.9628 29.0605 47.3661 29.0527 47.8736C29.0196 49.9995 28.868 52.1085 28.6006 54.1738C28.538 53.599 28.4056 53.0073 28.2022 52.3925C27.7813 51.1196 27.1252 49.8819 26.1962 48.609C25.3944 47.5067 24.56 46.4005 23.7532 45.3302L23.6995 45.2588C23.3795 44.8349 23.0598 44.4105 22.7485 43.9953C22.6901 43.91 22.6058 43.8794 22.5571 43.8625C22.4881 43.8288 22.4057 43.8255 22.3326 43.8566C22.2608 43.8872 22.2057 43.9475 22.1815 44.0214L22.172 44.0503C22.1587 44.0893 22.1481 44.1237 22.1426 44.1582C21.5861 47.4728 21.9275 50.4425 23.1859 53.238C23.8005 54.6049 24.6248 56.1524 26.0783 57.2658C26.7418 57.7741 27.2657 58.4873 27.5534 59.2736C27.6143 59.4428 27.6121 59.5162 27.6052 59.5446C26.99 62.0899 26.1865 64.5449 25.2097 66.8684C25.4612 65.6438 25.4439 64.3575 25.1568 63.0249C24.7492 61.136 24.0486 59.3055 23.4238 57.738L23.2365 57.2686C22.9436 56.534 22.6486 55.7936 22.344 55.0262C22.3053 54.9281 22.2121 54.8611 22.0877 54.855C21.9898 54.855 21.8997 54.9109 21.8529 55.0015L21.7547 55.186C21.7116 55.2669 21.6712 55.3422 21.6368 55.42C20.3797 58.2533 19.9552 61.1577 20.3756 64.0527C20.676 66.1227 21.1852 67.6049 22.0265 68.859C22.462 69.5071 22.8757 70.2292 22.9508 71.1172C22.9686 71.3273 22.9602 71.4721 22.8665 71.6369C21.8053 73.4932 20.6157 75.245 19.3128 76.8726C19.3178 76.8637 19.3225 76.8548 19.3275 76.8459C20.2648 75.1347 20.2932 73.2845 20.1975 71.7C20.1149 70.3417 19.9591 68.9854 19.8091 67.6741L19.8005 67.5982C19.7401 67.073 19.68 66.5479 19.6252 66.0218C19.5935 65.7236 19.5582 65.4254 19.5217 65.1227L19.4736 64.713C19.463 64.6224 19.4076 64.544 19.3281 64.5046C19.1801 64.4273 18.9405 64.5465 18.6818 64.8523C16.9036 66.9532 15.8002 69.3273 15.4018 71.909C14.9886 74.5858 15.2126 76.8765 16.0873 78.9121C16.1107 78.9663 16.1102 79.0769 16.1099 79.1139L16.0629 80.2851C16.0559 80.3693 16.0114 80.4643 15.9747 80.4996C14.1991 82.2078 12.2443 83.6928 10.1465 84.9288C11.1395 84.0322 11.8534 82.8624 12.3161 81.3799C12.8288 79.7367 13.092 78.0266 13.3471 76.3684L13.3694 76.2209C13.4598 75.6383 13.5541 75.0569 13.6504 74.4626L13.7592 73.7909C13.7748 73.6931 13.7361 73.5952 13.6601 73.5366C13.5847 73.4765 13.4757 73.4621 13.3889 73.4993L13.294 73.5385C13.1927 73.5799 13.1045 73.6169 13.0213 73.6594C9.05558 75.638 6.44503 80.2528 6.81395 84.632C6.87182 85.3179 6.80894 85.9622 6.62142 86.6003C6.60389 86.6584 6.54769 86.7215 6.52488 86.732C4.64132 87.5255 2.85041 88.1045 1.04837 88.5019C0.955723 88.5233 0.882268 88.5894 0.85222 88.6787C0.821894 88.7684 0.840261 88.866 0.902026 88.9394C1.09789 89.1712 1.26844 89.4205 1.40866 89.6814C1.46625 89.7882 1.60342 89.8429 1.70608 89.8162C3.17426 89.4816 4.60403 89.0483 5.95702 88.5275C6.06636 88.4836 6.14983 88.4627 6.22801 88.4755C6.52905 88.5155 6.84706 88.5772 7.20012 88.6648C7.27302 88.6826 7.33339 88.7162 7.3345 88.7131C8.10573 90.249 9.43118 91.2273 11.3879 91.7034C11.8136 91.8054 12.2526 91.8807 12.6928 91.9269C13.1535 91.9755 13.6674 92.0002 14.2196 92.0002C14.9847 92.0002 15.5303 91.953 15.537 91.9524C17.2331 91.7629 18.6815 91.3816 19.9644 90.7865C20.4908 90.5428 21.0906 90.2145 21.5516 89.6284C21.6398 89.5161 21.6251 89.354 21.518 89.2598C20.2148 88.1111 18.8879 87.2765 17.4609 86.7084C15.3467 85.869 13.4209 85.6417 11.5331 86.0044C11.251 86.0591 10.9756 86.1281 10.7079 86.2073C12.4738 85.1528 14.1646 83.9135 15.7613 82.5016C15.7919 82.4738 15.8422 82.4493 15.8815 82.4424C16.1427 82.399 16.4897 82.3457 16.8447 82.3201C16.8775 82.3201 16.9192 82.3359 16.924 82.3376C17.886 83.4132 19.1255 83.936 20.7133 83.936C20.7943 83.936 20.8755 83.9343 20.9565 83.9316C22.6829 83.876 24.4184 83.4021 26.1158 82.5224C27.3495 81.8796 28.6354 81.1311 29.6782 80.0149C29.9094 79.7667 30.1158 79.486 30.2981 79.2384L30.3159 79.2142C30.3965 79.105 30.4781 78.9949 30.5618 78.8862C30.6074 78.8276 30.6266 78.752 30.6147 78.6758C30.6019 78.6025 30.5593 78.5372 30.4867 78.4899C30.4683 78.4799 30.0268 78.2434 29.6237 78.0875C26.9243 77.0455 24.1992 76.9388 21.5995 77.7756C20.7484 78.0488 19.9474 78.4591 19.1675 79.026C20.6098 77.3512 21.9453 75.5152 23.1578 73.5396C23.1709 73.5188 23.2054 73.4624 23.2165 73.4521C23.3225 73.3845 23.431 73.3206 23.5392 73.2575C23.7331 73.1439 23.934 73.0263 24.1227 72.8862C24.2818 72.7675 24.3266 72.7645 24.4874 72.8679C24.715 73.0155 24.9796 73.0922 25.2102 73.1525C26.5596 73.4977 27.9198 73.3256 29.4244 72.6199C30.7989 71.9763 31.8555 70.9587 32.7931 69.9554C34.157 68.4918 35.0481 67.1713 35.5979 65.7995C35.7134 65.5115 35.7957 65.2139 35.8814 64.9026C35.9167 64.7719 35.9529 64.6413 35.9913 64.5129C36.0333 64.3751 35.9599 64.2291 35.8235 64.1811L35.7106 64.1724C35.1544 64.1724 30.1932 64.2539 27.2913 67.0666C26.66 67.6786 26.0941 68.3289 25.5775 69.041C26.7254 66.6124 27.6989 64.0529 28.4835 61.3962L28.4949 61.3573C28.5044 61.3247 28.5186 61.2755 28.528 61.2622L29.287 60.2211C29.3154 60.1794 29.3187 60.1794 29.3632 60.1794C29.383 60.1794 29.4047 60.1808 29.4294 60.1821L29.5917 60.1919C30.1564 60.2269 30.4889 60.2219 30.7624 60.1791C31.843 60.0087 32.8185 59.4651 33.7441 58.5168C35.9089 56.2989 37.3991 53.5318 38.2994 50.0581C38.396 49.686 38.423 49.3102 38.4519 48.9117C38.4647 48.731 38.4789 48.5448 38.4995 48.3525C38.5081 48.2602 38.4719 48.1721 38.4024 48.1146Z" fill="#1C1D28"/>
</svg>
