<svg width="134" height="32" viewBox="0 0 134 32" fill="none" xmlns="http://www.w3.org/2000/svg">
<g opacity="0.6">
<path d="M38.1576 9.82273H41.5445V23.4727H38.1576V9.82273ZM42.8951 18.3382C42.8951 14.9572 45.0053 12.9307 48.1706 12.9307C51.336 12.9307 53.4462 14.9572 53.4462 18.3382C53.4462 21.7192 51.4098 23.7667 48.1706 23.7667C44.9314 23.7667 42.8951 21.7927 42.8951 18.3382ZM50.091 18.3382C50.091 16.4797 49.3629 15.3877 48.2023 15.3877C47.0417 15.3877 46.3242 16.4377 46.3242 18.3382C46.3242 20.2387 47.0417 21.2782 48.2023 21.2782C49.3629 21.2782 50.1121 20.2387 50.1121 18.3487L50.091 18.3382ZM54.7968 24.1762H58.0676C58.2165 24.5267 58.4766 24.819 58.8081 25.0086C59.1396 25.1982 59.5243 25.2746 59.9035 25.2262C61.2013 25.2262 61.8766 24.5332 61.8766 23.5042V21.6142H61.8871C61.6076 22.2027 61.1557 22.6933 60.5907 23.0212C60.0257 23.3492 59.3741 23.4993 58.7218 23.4517C56.2423 23.4517 54.5963 21.5722 54.5963 18.3382C54.5963 15.1042 56.1684 13.0882 58.8167 13.0882C59.4858 13.0526 60.1495 13.2243 60.7164 13.5798C61.2833 13.9352 61.7255 14.4568 61.9821 15.0727H61.8871V13.1722H65.2424V23.3992C65.2424 25.8667 63.0478 27.4102 59.8191 27.4102C56.8859 27.3997 55.0078 26.0662 54.8179 24.1867L54.7968 24.1762ZM61.8871 18.3382C61.8871 16.6897 61.1274 15.6502 59.9246 15.6502C58.7218 15.6502 57.9832 16.7002 57.9832 18.3382C57.9832 19.9762 58.7112 20.9422 59.9246 20.9422C61.138 20.9422 61.8871 20.0497 61.8871 18.3382ZM66.5824 18.3382C66.5824 14.9572 68.6926 12.9307 71.8579 12.9307C75.0233 12.9307 77.1335 14.9572 77.1335 18.3382C77.1335 21.7192 75.0866 23.7667 71.8579 23.7667C68.6293 23.7667 66.6035 21.7927 66.6035 18.3382H66.5824ZM73.7783 18.3382C73.7783 16.4797 73.0397 15.3877 71.8896 15.3877C70.7395 15.3877 70.0115 16.4377 70.0115 18.3382C70.0115 20.2387 70.729 21.2782 71.8896 21.2782C73.0502 21.2782 73.7994 20.2387 73.7994 18.3487L73.7783 18.3382ZM78.5052 10.6837C78.4904 10.3404 78.5793 10.0005 78.7602 9.70786C78.9412 9.41517 79.206 9.18306 79.5206 9.04139C79.8352 8.89971 80.1852 8.85495 80.5256 8.91286C80.866 8.97077 81.1812 9.1287 81.4306 9.36634C81.68 9.60398 81.8523 9.91045 81.9253 10.2463C81.9983 10.5822 81.9686 10.9321 81.8401 11.2511C81.7116 11.5701 81.4901 11.8435 81.2041 12.0361C80.9182 12.2288 80.5809 12.3319 80.2356 12.3322C80.0149 12.3378 79.7953 12.2997 79.5895 12.2202C79.3837 12.1406 79.1959 12.0212 79.0369 11.8688C78.8779 11.7164 78.7508 11.5341 78.6632 11.3325C78.5755 11.1308 78.529 10.9139 78.5263 10.6942L78.5052 10.6837ZM78.5052 13.1617H81.9343V23.5147H78.5579L78.5052 13.1617ZM94.2686 18.3382C94.2686 21.7087 92.7492 23.6617 90.1642 23.6617C89.5024 23.7023 88.844 23.5399 88.2779 23.1963C87.7119 22.8526 87.2654 22.3444 86.9988 21.7402H86.9355V26.8432H83.5486V13.1932H86.9144V15.0412H86.9777C87.2352 14.4252 87.6773 13.903 88.2437 13.546C88.8101 13.189 89.4734 13.0145 90.1431 13.0462C92.802 13.0252 94.3319 14.9677 94.3319 18.3487L94.2686 18.3382ZM90.8184 18.3382C90.8184 16.7002 90.0481 15.6397 88.8558 15.6397C87.6636 15.6397 86.9144 16.6897 86.9039 18.3382C86.8933 19.9867 87.6636 21.0262 88.8558 21.0262C90.0481 21.0262 90.8817 20.0497 90.8817 18.3487L90.8184 18.3382ZM100.051 12.9202C102.889 12.9202 104.651 14.2537 104.672 16.3957H101.581C101.581 15.6502 100.958 15.1882 100.03 15.1882C99.101 15.1882 98.6579 15.5452 98.6579 16.0807C98.6579 16.6162 99.0482 16.7842 99.829 16.9417L102.003 17.3827C104.113 17.8237 104.957 18.6637 104.957 20.2282C104.957 22.3282 103.005 23.7562 100.103 23.7562C97.2018 23.7562 95.3131 22.3702 95.176 20.2597H98.4574C98.5524 21.0262 99.1643 21.4777 100.156 21.4777C101.148 21.4777 101.612 21.1627 101.612 20.6062C101.612 20.0497 101.296 19.9552 100.483 19.7872L98.5207 19.3777C96.4843 18.9472 95.4186 17.8867 95.4186 16.3012C95.482 14.2432 97.2546 12.9307 100.114 12.9307L100.051 12.9202ZM116.299 23.5042H113.018V21.5617H112.955C112.771 22.2096 112.371 22.7759 111.82 23.1672C111.27 23.5585 110.602 23.7515 109.926 23.7142C109.417 23.7308 108.909 23.6398 108.437 23.4473C107.964 23.2547 107.539 22.9651 107.187 22.5972C106.835 22.2293 106.566 21.7916 106.396 21.3128C106.226 20.8339 106.16 20.3248 106.202 19.8187V13.1722H109.589V19.0942C109.589 20.3122 110.232 20.9737 111.288 20.9737C111.535 20.9719 111.779 20.9172 112.004 20.8134C112.228 20.7095 112.428 20.559 112.589 20.3719C112.75 20.1848 112.869 19.9654 112.937 19.7287C113.006 19.492 113.023 19.2434 112.986 18.9997V13.1722H116.363L116.299 23.5042ZM117.935 13.1617H121.227V15.1567H121.301C121.482 14.5176 121.872 13.9566 122.409 13.5614C122.945 13.1662 123.598 12.9592 124.265 12.9727C124.935 12.9148 125.603 13.1076 126.138 13.5134C126.672 13.9192 127.036 14.509 127.156 15.1672H127.304C127.515 14.5054 127.94 13.9315 128.512 13.5347C129.085 13.1378 129.773 12.9403 130.47 12.9727C130.933 12.9552 131.394 13.0352 131.824 13.2075C132.254 13.3798 132.643 13.6405 132.965 13.9725C133.286 14.3046 133.534 14.7005 133.691 15.1343C133.849 15.5682 133.912 16.0303 133.878 16.4902V23.5147H130.47V17.3512C130.47 16.3012 129.974 15.7132 129.013 15.7132C128.801 15.7098 128.589 15.7521 128.394 15.8375C128.199 15.9228 128.025 16.0491 127.884 16.2077C127.743 16.3663 127.638 16.5534 127.576 16.7562C127.514 16.959 127.497 17.1727 127.526 17.3827V23.5147H124.297V17.3197C124.297 16.2697 123.78 15.7132 122.852 15.7132C122.636 15.7115 122.423 15.7556 122.227 15.8426C122.03 15.9296 121.854 16.0575 121.712 16.2176C121.569 16.3777 121.462 16.5664 121.398 16.7709C121.335 16.9755 121.316 17.1913 121.343 17.4037V23.5147H117.956L117.935 13.1617Z" fill="#1D2130"/>
<path d="M31.4575 10.7153C31.4576 8.6255 30.8235 6.58437 29.6382 4.85928C28.4528 3.13419 26.7716 1.80558 24.8146 1.04748C22.8577 0.289369 20.7163 0.137117 18.6709 0.610659C16.6255 1.0842 14.7715 2.16146 13.3518 3.70133H0.18396V31.3583H27.9862V18.4328C29.0774 17.4615 29.9506 16.2722 30.5487 14.9424C31.1469 13.6126 31.4565 12.1723 31.4575 10.7153ZM26.1081 10.7153C26.1102 11.7167 25.8137 12.6963 25.2562 13.5299C24.6986 14.3636 23.9051 15.0139 22.976 15.3986C22.0469 15.7832 21.024 15.885 20.0368 15.6909C19.0496 15.4968 18.1424 15.0156 17.4301 14.3082C16.7178 13.6008 16.2324 12.6991 16.0353 11.717C15.8382 10.735 15.9383 9.71689 16.3229 8.7915C16.7075 7.86611 17.3594 7.07507 18.1959 6.51849C19.0325 5.96192 20.0162 5.66483 21.0225 5.66482C22.3694 5.66482 23.6614 6.19659 24.6148 7.14344C25.5683 8.09029 26.1053 9.37489 26.1081 10.7153ZM22.6368 26.0348H5.53339V9.02483H10.7456C10.645 9.58286 10.592 10.1484 10.5874 10.7153C10.5902 13.4686 11.6905 16.1083 13.6468 18.0552C15.6032 20.0021 18.2558 21.097 21.0225 21.0998C21.5634 21.097 22.1032 21.0513 22.6368 20.9633V26.0348Z" fill="#1D2130"/>
</g>
</svg>
