<svg width="137" height="32" viewBox="0 0 137 32" fill="none" xmlns="http://www.w3.org/2000/svg">
<g opacity="0.6">
<path d="M33.1768 7.63404H36.3421V22.951H33.1768V7.63404Z" fill="#1D2130"/>
<path d="M38.1147 17.704C38.1147 16.602 38.4404 15.5248 39.0505 14.609C39.6606 13.6932 40.5276 12.9799 41.5416 12.5597C42.5556 12.1394 43.671 12.0311 44.7464 12.2484C45.8218 12.4657 46.8087 12.9989 47.5822 13.7803C48.3556 14.5618 48.8806 15.5564 49.0908 16.638C49.3009 17.7196 49.1867 18.8395 48.7626 19.8558C48.3385 20.8721 47.6236 21.739 46.7085 22.3466C45.7934 22.9543 44.7193 23.2753 43.6224 23.269C42.8948 23.2747 42.1735 23.1345 41.5006 22.8564C40.8278 22.5784 40.2169 22.1682 39.7039 21.6498C39.1909 21.1315 38.7861 20.5155 38.5132 19.8379C38.2403 19.1604 38.1048 18.4349 38.1147 17.704ZM46.0491 17.704C46.0367 17.2289 45.8851 16.7681 45.6133 16.3791C45.3415 15.9901 44.9616 15.6903 44.5211 15.517C44.0805 15.3438 43.599 15.305 43.1366 15.4053C42.6742 15.5056 42.2514 15.7406 41.9213 16.081C41.5912 16.4214 41.3683 16.852 41.2805 17.319C41.1927 17.786 41.2438 18.2687 41.4276 18.7066C41.6114 19.1445 41.9197 19.5183 42.3138 19.7811C42.7079 20.044 43.1704 20.1843 43.6435 20.1844C43.9656 20.1907 44.2855 20.1302 44.5832 20.0067C44.881 19.8831 45.1502 19.6992 45.374 19.4664C45.5978 19.2337 45.7714 18.957 45.8839 18.6537C45.9964 18.3505 46.0455 18.0272 46.028 17.704H46.0491Z" fill="#1D2130"/>
<path d="M61.6543 12.457V22.4316C61.6543 25.9508 58.911 27.4454 56.1361 27.4454C55.1573 27.5261 54.1755 27.3308 53.3012 26.8813C52.427 26.4319 51.695 25.7462 51.1876 24.9014L53.857 23.3538C54.0733 23.792 54.4174 24.1535 54.8434 24.3902C55.2695 24.6269 55.7572 24.7276 56.2416 24.6788C56.5502 24.717 56.8633 24.6862 57.1587 24.5887C57.4541 24.4911 57.7243 24.3292 57.9502 24.1145C58.176 23.8998 58.3518 23.6376 58.465 23.3467C58.5782 23.0557 58.626 22.7433 58.605 22.4316V21.467C58.2367 21.9157 57.7693 22.2719 57.24 22.5075C56.7107 22.743 56.134 22.8513 55.5558 22.8238C54.1566 22.8238 52.8147 22.2654 51.8254 21.2715C50.836 20.2775 50.2802 18.9295 50.2802 17.5238C50.2802 16.1182 50.836 14.7701 51.8254 13.7762C52.8147 12.7822 54.1566 12.2238 55.5558 12.2238C56.134 12.1964 56.7107 12.3047 57.24 12.5402C57.7693 12.7757 58.2367 13.132 58.605 13.5806V12.5206L61.6543 12.457ZM58.605 17.492C58.6261 16.9849 58.4956 16.483 58.2305 16.051C57.9654 15.6189 57.5776 15.2764 57.1172 15.0675C56.6567 14.8586 56.1446 14.7928 55.6466 14.8787C55.1486 14.9645 54.6876 15.1981 54.3229 15.5493C53.9581 15.9005 53.7062 16.3533 53.5997 16.8494C53.4931 17.3456 53.5367 17.8624 53.7249 18.3335C53.913 18.8046 54.2371 19.2083 54.6556 19.4928C55.074 19.7773 55.5675 19.9296 56.0728 19.93C56.4024 19.9539 56.7334 19.908 57.0444 19.7954C57.3553 19.6827 57.6392 19.5058 57.8779 19.2761C58.1165 19.0463 58.3045 18.7688 58.4298 18.4615C58.555 18.1542 58.6147 17.8239 58.605 17.492Z" fill="#1D2130"/>
<path d="M63.4374 17.704C63.4374 16.6029 63.7626 15.5266 64.3717 14.6112C64.9808 13.6958 65.8466 12.9825 66.8594 12.5616C67.8722 12.1407 68.9865 12.0311 70.0613 12.2467C71.1361 12.4623 72.1231 12.9934 72.8974 13.7727C73.6717 14.5521 74.1984 15.5447 74.4109 16.6249C74.6235 17.7051 74.5123 18.8243 74.0914 19.841C73.6705 20.8577 72.9589 21.7261 72.0466 22.3363C71.1342 22.9465 70.0622 23.2711 68.9662 23.269C68.2373 23.2761 67.5143 23.137 66.8396 22.8597C66.165 22.5824 65.5522 22.1726 65.0372 21.6542C64.5223 21.1359 64.1155 20.5195 63.8408 19.8412C63.5661 19.1629 63.429 18.4363 63.4374 17.704ZM71.3719 17.704C71.3594 17.2285 71.2075 16.7672 70.9353 16.378C70.663 15.9888 70.2825 15.689 69.8413 15.5161C69.4002 15.3432 68.9181 15.305 68.4554 15.4061C67.9927 15.5073 67.5701 15.7434 67.2404 16.0848C66.9107 16.4263 66.6886 16.8579 66.602 17.3256C66.5154 17.7932 66.5681 18.2762 66.7535 18.7139C66.9389 19.1517 67.2487 19.5247 67.6442 19.7863C68.0397 20.0478 68.5033 20.1863 68.9768 20.1844C69.2988 20.1907 69.6188 20.1302 69.9165 20.0067C70.2143 19.8831 70.4835 19.6992 70.7073 19.4664C70.9311 19.2337 71.1046 18.957 71.2172 18.6537C71.3297 18.3505 71.3788 18.0272 71.3613 17.704H71.3719Z" fill="#1D2130"/>
<path d="M75.9617 9.64798C75.9617 9.27481 76.0718 8.91001 76.2782 8.59973C76.4846 8.28944 76.7779 8.04761 77.1211 7.9048C77.4642 7.76199 77.8419 7.72463 78.2062 7.79743C78.5705 7.87023 78.9051 8.04994 79.1678 8.31381C79.4305 8.57768 79.6093 8.91388 79.6818 9.27988C79.7542 9.64589 79.7171 10.0253 79.5749 10.37C79.4328 10.7148 79.192 11.0095 78.8832 11.2168C78.5743 11.4241 78.2112 11.5348 77.8398 11.5348C77.3434 11.5293 76.8688 11.3287 76.5178 10.9761C76.1668 10.6234 75.9672 10.1467 75.9617 9.64798ZM76.2677 12.457H79.433V22.951H76.2677V12.457Z" fill="#1D2130"/>
<path d="M92.9806 17.7041C93.0161 18.402 92.9138 19.1 92.6797 19.7581C92.4456 20.4161 92.0843 21.0212 91.6165 21.5384C91.1488 22.0556 90.5838 22.4748 89.9541 22.7718C89.3245 23.0688 88.6426 23.2378 87.9477 23.2691C87.358 23.3085 86.7671 23.2136 86.219 22.9915C85.6709 22.7694 85.1798 22.4259 84.7824 21.9865V27.1699H81.617V12.4571H84.7824V13.4429C85.1803 13.0048 85.6718 12.6628 86.22 12.4425C86.7681 12.2222 87.3588 12.1294 87.9477 12.1709C88.6398 12.2022 89.319 12.3701 89.9465 12.6651C90.574 12.9602 91.1375 13.3765 91.6049 13.8903C92.0722 14.4041 92.4342 15.0053 92.6703 15.6597C92.9063 16.3141 93.0118 17.0087 92.9806 17.7041ZM89.8153 17.7041C89.8028 17.2117 89.646 16.7341 89.3644 16.3309C89.0829 15.9278 88.6891 15.6171 88.2326 15.4378C87.776 15.2585 87.2769 15.2185 86.7979 15.323C86.3188 15.4274 85.8811 15.6716 85.5396 16.0249C85.1981 16.3782 84.968 16.8249 84.8781 17.3091C84.7883 17.7932 84.8426 18.2932 85.0344 18.7464C85.2262 19.1997 85.5469 19.5859 85.9563 19.8568C86.3657 20.1277 86.8455 20.2712 87.3357 20.2693C87.6715 20.2836 88.0065 20.2264 88.3187 20.1016C88.631 19.9767 88.9134 19.7869 89.1475 19.5447C89.3817 19.3025 89.5622 19.0133 89.6773 18.6961C89.7923 18.3789 89.8394 18.0408 89.8153 17.7041Z" fill="#1D2130"/>
<path d="M102.614 19.8028C102.614 22.2196 100.504 23.2478 98.2667 23.2478C97.3544 23.3303 96.4384 23.136 95.6371 22.6901C94.8359 22.2441 94.1861 21.567 93.7719 20.7462L96.4941 19.1986C96.602 19.5768 96.8358 19.9064 97.1566 20.1322C97.4773 20.3579 97.8655 20.4662 98.2562 20.4388C99.0053 20.4388 99.3851 20.2056 99.3851 19.7816C99.3851 18.6262 94.2467 19.241 94.2467 15.6052C94.2467 13.3156 96.167 12.1708 98.3406 12.1708C99.1668 12.1336 99.9876 12.322 100.716 12.7158C101.444 13.1095 102.053 13.6941 102.477 14.4074L99.7544 15.849C99.6342 15.5755 99.4377 15.3429 99.1886 15.1793C98.9396 15.0156 98.6487 14.9279 98.3511 14.9268C97.8025 14.9268 97.4754 15.1388 97.4754 15.5098C97.4754 16.7182 102.614 15.9232 102.614 19.8028Z" fill="#1D2130"/>
<path d="M114.083 12.4571V22.9511H110.917V21.9653C110.558 22.4016 110.101 22.747 109.584 22.9734C109.068 23.1999 108.505 23.3012 107.942 23.2691C105.832 23.2691 104.028 21.7533 104.028 18.9231V12.4571H107.193V18.4461C107.168 18.6965 107.198 18.9493 107.279 19.1871C107.361 19.4249 107.494 19.642 107.667 19.8234C107.841 20.0048 108.051 20.1462 108.285 20.2379C108.518 20.3295 108.768 20.3691 109.018 20.3541C110.158 20.3541 110.96 19.6757 110.96 18.2341V12.4571H114.083Z" fill="#1D2130"/>
<path d="M132.02 16.5062V22.951H128.854V16.7818C128.854 15.7218 128.359 15.0646 127.356 15.0646C126.354 15.0646 125.721 15.796 125.721 17.0362V22.951H122.555V16.7818C122.555 15.7218 122.059 15.0646 121.057 15.0646C120.055 15.0646 119.422 15.796 119.422 17.0362V22.951H116.256V12.457H119.422V13.4216C119.749 12.9954 120.178 12.658 120.668 12.4396C121.157 12.2212 121.694 12.1288 122.228 12.1708C122.764 12.1428 123.297 12.255 123.776 12.4966C124.255 12.7382 124.664 13.1008 124.961 13.5488C125.309 13.0808 125.769 12.7089 126.298 12.4679C126.828 12.2269 127.41 12.1247 127.989 12.1708C130.458 12.1708 132.02 13.888 132.02 16.5062Z" fill="#1D2130"/>
<path d="M14.3219 4.87805V0.373047H0.18335V31.325H14.3219V26.82C11.4256 26.82 8.64794 25.6642 6.59997 23.6067C4.55199 21.5492 3.40145 18.7587 3.40145 15.849C3.40145 12.9394 4.55199 10.1488 6.59997 8.09138C8.64794 6.03392 11.4256 4.87805 14.3219 4.87805Z" fill="#1D2130"/>
<path d="M14.3219 4.87805V26.82C17.2182 26.82 19.9957 25.6642 22.0437 23.6067C24.0917 21.5493 25.2422 18.7587 25.2422 15.849C25.2422 12.9394 24.0917 10.1488 22.0437 8.09138C19.9957 6.03392 17.2182 4.87805 14.3219 4.87805Z" fill="#1D2130"/>
<path d="M134.679 12.3934C135.961 12.3934 137 11.3493 137 10.0614C137 8.77349 135.961 7.72942 134.679 7.72942C133.397 7.72942 132.357 8.77349 132.357 10.0614C132.357 11.3493 133.397 12.3934 134.679 12.3934Z" fill="#1D2130"/>
</g>
</svg>
