<svg width="124" height="26" viewBox="0 0 124 26" fill="none" xmlns="http://www.w3.org/2000/svg">
<g opacity="0.6">
<path d="M40.0896 20.5432C39.4654 20.5767 38.848 20.4008 38.337 20.044C38.1234 19.8871 37.9517 19.6811 37.8365 19.4437C37.7213 19.2064 37.6661 18.9448 37.6758 18.6816V9.04076C37.6707 8.99994 37.6751 8.95851 37.6886 8.91961C37.702 8.88072 37.7243 8.84539 37.7537 8.8163C37.783 8.78722 37.8187 8.76516 37.8579 8.75179C37.8972 8.73842 37.939 8.7341 37.9802 8.73916H39.7433C39.9427 8.73916 40.0371 8.84316 40.0371 9.04076V17.9328C40.0371 18.328 40.2155 18.5256 40.5828 18.5256C40.7385 18.5319 40.8943 18.5144 41.0446 18.4736C41.2545 18.4736 41.3699 18.536 41.3804 18.7232L41.5379 20.0232C41.5454 20.0611 41.5447 20.1001 41.5358 20.1377C41.5268 20.1753 41.5098 20.2106 41.4859 20.2411C41.4621 20.2717 41.4319 20.2968 41.3974 20.3148C41.3629 20.3328 41.3249 20.3433 41.286 20.3456C40.8998 20.472 40.4963 20.5386 40.0896 20.5432Z" fill="#1D2130"/>
<path d="M50.0071 19.4304C49.1212 20.1558 48.0079 20.5526 46.8587 20.5526C45.7095 20.5526 44.5962 20.1558 43.7103 19.4304C42.9316 18.6514 42.4948 17.5993 42.4948 16.5028C42.4948 15.4063 42.9316 14.3542 43.7103 13.5752C44.5979 12.8536 45.7106 12.4592 46.8587 12.4592C48.0068 12.4592 49.1194 12.8536 50.0071 13.5752C50.7678 14.3614 51.1925 15.4084 51.1925 16.4976C51.1925 17.5868 50.7678 18.6339 50.0071 19.42V19.4304ZM45.3684 18.0576C45.7796 18.4267 46.3145 18.6311 46.8692 18.6311C47.4239 18.6311 47.9588 18.4267 48.3699 18.0576C48.742 17.6337 48.9469 17.0907 48.9469 16.5288C48.9469 15.9669 48.742 15.424 48.3699 15C47.9588 14.631 47.4239 14.4266 46.8692 14.4266C46.3145 14.4266 45.7796 14.631 45.3684 15C44.9963 15.424 44.7914 15.9669 44.7914 16.5288C44.7914 17.0907 44.9963 17.6337 45.3684 18.0576Z" fill="#1D2130"/>
<path d="M60.9006 12.7224C61.1 12.7224 61.1945 12.8264 61.1945 13.024V20.4808C61.2128 20.984 61.1178 21.4851 60.9162 21.9474C60.7147 22.4097 60.4118 22.8218 60.0295 23.1536C59.181 23.8706 58.0897 24.2422 56.9756 24.1936C55.9693 24.2286 54.9764 23.9563 54.1315 23.4136C53.7707 23.1788 53.4625 22.873 53.226 22.5151C52.9895 22.1573 52.8297 21.7551 52.7567 21.3336C52.7567 21.1256 52.7567 21.032 53.0401 21.032H54.8032C54.878 21.0345 54.9506 21.0584 55.012 21.1008C55.0734 21.1433 55.1212 21.2024 55.1495 21.2712C55.2638 21.587 55.4918 21.85 55.7897 22.0096C56.1527 22.1952 56.5567 22.2881 56.9651 22.28C57.2115 22.2933 57.4581 22.2579 57.6906 22.1758C57.923 22.0936 58.1366 21.9664 58.3189 21.8016C58.4854 21.6291 58.615 21.425 58.6997 21.2016C58.7845 20.9781 58.8228 20.74 58.8122 20.5016V19.8464C58.1809 20.3065 57.4126 20.5444 56.6292 20.5224C56.081 20.5421 55.5344 20.4519 55.0222 20.2571C54.51 20.0623 54.0429 19.7669 53.6488 19.3888C52.8921 18.6131 52.4692 17.5764 52.4692 16.4976C52.4692 15.4187 52.8921 14.3821 53.6488 13.6064C54.0448 13.2315 54.5125 12.939 55.0244 12.7461C55.5363 12.5532 56.082 12.4638 56.6292 12.4832C57.4352 12.4621 58.2242 12.7153 58.8646 13.2008V13.0344C58.8598 12.9945 58.864 12.9541 58.8769 12.916C58.8898 12.878 58.9111 12.8433 58.9393 12.8144C58.9674 12.7855 59.0017 12.7632 59.0396 12.7491C59.0775 12.735 59.1181 12.7294 59.1585 12.7328L60.9006 12.7224ZM56.8287 18.6712C57.099 18.6795 57.3679 18.6288 57.6164 18.5228C57.8648 18.4167 58.0867 18.2579 58.2664 18.0576C58.6153 17.611 58.8047 17.0623 58.8047 16.4976C58.8047 15.9328 58.6153 15.3841 58.2664 14.9376C58.0874 14.7399 57.8668 14.5835 57.6202 14.4793C57.3737 14.3751 57.1071 14.3256 56.8391 14.3344C56.5657 14.3258 56.2936 14.3763 56.0417 14.4822C55.7898 14.5882 55.5642 14.7471 55.3804 14.948C54.9939 15.3751 54.7906 15.9347 54.8137 16.508C54.7947 17.0756 54.9935 17.6293 55.3699 18.0576C55.5541 18.2579 55.7798 18.4164 56.0316 18.5223C56.2834 18.6282 56.5553 18.679 56.8287 18.6712Z" fill="#1D2130"/>
<path d="M70.2514 19.4304C69.3637 20.152 68.2511 20.5464 67.1029 20.5464C65.9548 20.5464 64.8422 20.152 63.9545 19.4304C63.1931 18.6425 62.7681 17.5937 62.7681 16.5028C62.7681 15.4118 63.1931 14.3631 63.9545 13.5752C64.843 12.8554 65.9553 12.4622 67.1029 12.4622C68.2505 12.4622 69.3629 12.8554 70.2514 13.5752C71.0121 14.3613 71.4368 15.4084 71.4368 16.4976C71.4368 17.5867 71.0121 18.6338 70.2514 19.42V19.4304ZM65.6022 18.0576C65.8034 18.2472 66.0406 18.3955 66.3 18.4936C66.5594 18.5918 66.8359 18.638 67.1134 18.6296C67.3892 18.6366 67.6638 18.5898 67.9213 18.4916C68.1788 18.3935 68.4142 18.246 68.6142 18.0576C68.9802 17.6308 69.1812 17.0889 69.1812 16.5288C69.1812 15.9686 68.9802 15.4268 68.6142 15C68.4142 14.8116 68.1788 14.6641 67.9213 14.5659C67.6638 14.4678 67.3892 14.4209 67.1134 14.428C66.8359 14.4195 66.5594 14.4657 66.3 14.5639C66.0406 14.6621 65.8034 14.8103 65.6022 15C65.2362 15.4268 65.0352 15.9686 65.0352 16.5288C65.0352 17.0889 65.2362 17.6308 65.6022 18.0576Z" fill="#1D2130"/>
<path d="M75.2259 10.9544C74.9485 11.195 74.5923 11.3277 74.2236 11.3277C73.855 11.3277 73.4988 11.195 73.2214 10.9544C73.0956 10.8368 72.9954 10.6949 72.9269 10.5375C72.8584 10.3802 72.8231 10.2106 72.8231 10.0392C72.8231 9.86782 72.8584 9.69823 72.9269 9.54086C72.9954 9.38348 73.0956 9.24163 73.2214 9.124C73.5017 8.88939 73.8568 8.76068 74.2236 8.76068C74.5906 8.76068 74.9456 8.88939 75.2259 9.124C75.3517 9.24163 75.4519 9.38348 75.5204 9.54086C75.5889 9.69823 75.6242 9.86782 75.6242 10.0392C75.6242 10.2106 75.5889 10.3802 75.5204 10.5375C75.4519 10.6949 75.3517 10.8368 75.2259 10.9544ZM75.4463 20.5432C74.8224 20.5735 74.2061 20.3979 73.6937 20.044C73.4834 19.8848 73.3146 19.6781 73.2014 19.4411C73.0882 19.2041 73.0339 18.9437 73.043 18.6816V13.024C73.0379 12.9832 73.0423 12.9418 73.0557 12.9029C73.0692 12.864 73.0915 12.8286 73.1208 12.7995C73.1502 12.7705 73.1859 12.7484 73.2251 12.735C73.2644 12.7217 73.3062 12.7173 73.3473 12.7224H75.1105C75.3099 12.7224 75.4043 12.8264 75.4043 13.024V17.9328C75.4043 18.328 75.5827 18.5256 75.9395 18.5256C76.0987 18.5313 76.2578 18.5138 76.4118 18.4736C76.6217 18.4736 76.7371 18.536 76.7476 18.7232L76.9051 20.0232C76.9126 20.0611 76.9119 20.1002 76.9029 20.1378C76.894 20.1754 76.877 20.2106 76.8531 20.2412C76.8293 20.2717 76.7991 20.2969 76.7646 20.3149C76.7301 20.3329 76.6921 20.3434 76.6532 20.3456C76.2636 20.4727 75.8565 20.5394 75.4463 20.5432Z" fill="#1D2130"/>
<path d="M83.3909 12.4728C83.9416 12.4513 84.4911 12.5396 85.0067 12.7325C85.5223 12.9255 85.9935 13.2191 86.3924 13.596C87.1345 14.3853 87.5471 15.424 87.5471 16.5028C87.5471 17.5816 87.1345 18.6203 86.3924 19.4096C85.9954 19.7899 85.5248 20.0864 85.0089 20.2812C84.493 20.4761 83.9425 20.5652 83.3909 20.5432C82.605 20.5605 81.8349 20.3232 81.1975 19.8672V23.6216C81.1975 23.8192 81.0925 23.9128 80.8931 23.9128H79.13C79.0898 23.9203 79.0483 23.9179 79.0092 23.9059C78.9702 23.8939 78.9346 23.8726 78.9057 23.844C78.8767 23.8153 78.8553 23.78 78.8432 23.7413C78.8311 23.7026 78.8287 23.6615 78.8362 23.6216V15.0936C78.8485 15.0102 78.841 14.9251 78.8143 14.8451C78.7875 14.765 78.7423 14.6923 78.6821 14.6327C78.622 14.5731 78.5486 14.5282 78.4678 14.5017C78.3871 14.4752 78.3012 14.4678 78.217 14.48H77.8707C77.6398 14.48 77.5243 14.3968 77.5243 14.2304V13.0032C77.5189 12.9273 77.5399 12.8518 77.5838 12.7893C77.6277 12.7269 77.6919 12.6812 77.7657 12.66C78.1287 12.5293 78.5129 12.4658 78.8991 12.4728C79.2843 12.439 79.6708 12.52 80.0092 12.7053C80.3476 12.8905 80.6225 13.1717 80.7987 13.5128C81.1367 13.174 81.5409 12.907 81.9866 12.7281C82.4323 12.5493 82.9101 12.4624 83.3909 12.4728ZM81.7537 18.0576C81.9408 18.2514 82.1656 18.4056 82.4145 18.511C82.6634 18.6164 82.9313 18.6707 83.202 18.6707C83.4726 18.6707 83.7405 18.6164 83.9894 18.511C84.2383 18.4056 84.4631 18.2514 84.6502 18.0576C85.0444 17.622 85.2515 17.0511 85.2275 16.4664C85.2549 15.8813 85.0474 15.3091 84.6502 14.8752C84.4631 14.6814 84.2383 14.5272 83.9894 14.4218C83.7405 14.3165 83.4726 14.2621 83.202 14.2621C82.9313 14.2621 82.6634 14.3165 82.4145 14.4218C82.1656 14.5272 81.9408 14.6814 81.7537 14.8752C81.3718 15.3168 81.1731 15.8854 81.1975 16.4664C81.1762 17.047 81.3746 17.6145 81.7537 18.0576Z" fill="#1D2130"/>
<path d="M92.5002 20.5431C91.5581 20.5815 90.6239 20.3582 89.803 19.8983C89.4737 19.7018 89.1932 19.4342 88.9825 19.1155C88.7717 18.7969 88.6361 18.4353 88.5857 18.0575C88.5857 17.8495 88.6591 17.7456 88.89 17.7456H90.4327C90.5061 17.7484 90.5773 17.7712 90.6384 17.8116C90.6995 17.852 90.7482 17.9083 90.7791 17.9743C90.9994 18.5359 91.5767 18.8167 92.5002 18.8167C92.8223 18.8313 93.1431 18.767 93.4342 18.6295C93.5347 18.5846 93.6209 18.5134 93.6838 18.4237C93.7466 18.3339 93.7837 18.229 93.791 18.12C93.791 17.8496 93.6231 17.6623 93.2873 17.5375C92.889 17.4062 92.4771 17.319 92.0594 17.2775C91.5646 17.222 91.0738 17.1352 90.5901 17.0175C90.1198 16.912 89.6921 16.6694 89.3623 16.3208C89.168 16.0838 89.025 15.8098 88.9422 15.5158C88.8593 15.2217 88.8384 14.9139 88.8808 14.6116C88.9231 14.3092 89.0277 14.0186 89.1882 13.758C89.3487 13.4974 89.5615 13.2723 89.8135 13.0968C90.57 12.6192 91.4575 12.3866 92.3533 12.4312C93.2205 12.4021 94.0786 12.6147 94.83 13.0448C95.1328 13.2147 95.3936 13.4495 95.5933 13.7319C95.793 14.0144 95.9266 14.3375 95.9844 14.6776C95.9844 14.8856 95.89 14.9895 95.7011 14.9895H94.1479C94.0825 14.9934 94.0174 14.9776 93.9612 14.9442C93.9051 14.9108 93.8604 14.8613 93.833 14.8024C93.7292 14.556 93.5338 14.3587 93.2873 14.2512C93.0092 14.1069 92.6985 14.0354 92.3847 14.0432C92.0771 14.0266 91.7702 14.0874 91.4927 14.22C91.3949 14.2573 91.3107 14.3229 91.2508 14.4081C91.1909 14.4934 91.1582 14.5945 91.1569 14.6984C91.1636 14.8406 91.2161 14.9769 91.3068 15.0874C91.3974 15.1978 91.5215 15.2765 91.6606 15.312C92.0636 15.4625 92.4826 15.5671 92.9095 15.624C93.4003 15.688 93.8873 15.7782 94.3683 15.8943C94.8386 15.9998 95.2663 16.2425 95.5961 16.5912C95.7726 16.7832 95.9089 17.008 95.9972 17.2525C96.0854 17.4971 96.1239 17.7566 96.1104 18.0159C96.1194 18.3755 96.0343 18.7312 95.8632 19.0483C95.6921 19.3655 95.441 19.6333 95.1344 19.8256C94.3503 20.3244 93.4314 20.5747 92.5002 20.5431Z" fill="#1D2130"/>
<path d="M107.203 20.0232C107.209 20.0601 107.208 20.0978 107.199 20.1341C107.19 20.1705 107.174 20.2046 107.151 20.2347C107.129 20.2647 107.1 20.29 107.068 20.309C107.035 20.3281 106.999 20.3405 106.962 20.3456C106.579 20.4695 106.179 20.5361 105.776 20.5432C105.377 20.5841 104.974 20.5223 104.607 20.3638C104.239 20.2053 103.919 19.9554 103.677 19.6384C102.936 20.27 101.977 20.594 101.001 20.5432C100.548 20.5639 100.095 20.4904 99.6721 20.3274C99.2492 20.1644 98.8653 19.9155 98.5452 19.5968C98.2273 19.2628 97.9808 18.8686 97.8203 18.438C97.6598 18.0073 97.5887 17.5489 97.6112 17.0904V13.024C97.6112 12.8264 97.7056 12.7224 97.905 12.7224H99.6682C99.8676 12.7224 99.962 12.8264 99.962 13.024V16.7784C99.9428 17.2461 100.104 17.7035 100.413 18.0576C100.568 18.2197 100.755 18.3473 100.963 18.4316C101.171 18.5159 101.395 18.555 101.62 18.5464C101.85 18.5563 102.08 18.521 102.296 18.4425C102.512 18.3639 102.711 18.2437 102.88 18.0888C103.039 17.9254 103.164 17.7313 103.245 17.5185C103.326 17.3056 103.363 17.0785 103.352 16.8512V13.024C103.352 12.8264 103.446 12.7224 103.646 12.7224H105.43C105.629 12.7224 105.724 12.8264 105.724 13.024V17.9224C105.724 18.328 105.902 18.5256 106.248 18.5256C106.411 18.5318 106.574 18.5143 106.731 18.4736C106.771 18.4625 106.812 18.4606 106.853 18.4678C106.894 18.475 106.932 18.4912 106.965 18.5152C106.999 18.5393 107.026 18.5704 107.045 18.6064C107.065 18.6425 107.076 18.6824 107.077 18.7232L107.203 20.0232Z" fill="#1D2130"/>
<path d="M123.879 20.0232C123.889 20.0604 123.89 20.0993 123.882 20.1369C123.874 20.1745 123.859 20.21 123.835 20.2409C123.812 20.2717 123.783 20.2971 123.749 20.3152C123.714 20.3333 123.677 20.3437 123.638 20.3456C123.248 20.4713 122.841 20.5379 122.431 20.5432C121.807 20.5751 121.19 20.3994 120.679 20.044C120.457 19.8918 120.277 19.6878 120.155 19.4501C120.032 19.2125 119.97 18.9485 119.975 18.6816V16.2376C119.997 15.7712 119.84 15.314 119.535 14.9584C119.387 14.7959 119.206 14.6677 119.002 14.5832C118.799 14.4987 118.579 14.4599 118.359 14.4696C118.161 14.4622 117.963 14.4995 117.781 14.5788C117.6 14.658 117.438 14.7772 117.31 14.9272C117.033 15.2757 116.891 15.7112 116.911 16.1544V19.992C116.911 20.1896 116.816 20.2936 116.617 20.2936H114.843C114.802 20.2987 114.76 20.2943 114.721 20.281C114.682 20.2676 114.646 20.2455 114.617 20.2165C114.588 20.1874 114.565 20.152 114.552 20.1131C114.538 20.0743 114.534 20.0328 114.539 19.992V16.2376C114.562 15.7763 114.417 15.3223 114.13 14.9584C114.002 14.8055 113.841 14.6825 113.66 14.598C113.479 14.5135 113.281 14.4697 113.08 14.4696C112.866 14.461 112.653 14.4974 112.454 14.5762C112.255 14.6551 112.075 14.7747 111.926 14.9272C111.626 15.2646 111.471 15.7053 111.496 16.1544V19.992C111.501 20.0328 111.496 20.0743 111.483 20.1131C111.469 20.152 111.447 20.1874 111.418 20.2165C111.388 20.2455 111.353 20.2676 111.314 20.281C111.274 20.2943 111.232 20.2987 111.191 20.2936H109.481C109.281 20.2936 109.187 20.1896 109.187 19.992V15.0936C109.199 15.0102 109.192 14.9251 109.165 14.845C109.138 14.765 109.093 14.6923 109.033 14.6327C108.973 14.5731 108.899 14.5282 108.818 14.5017C108.738 14.4752 108.652 14.4678 108.568 14.48H108.221C107.99 14.48 107.875 14.3968 107.875 14.2304V13.0032C107.869 12.9273 107.89 12.8518 107.934 12.7893C107.978 12.7269 108.043 12.6812 108.116 12.66C108.479 12.5292 108.864 12.4658 109.25 12.4728C109.62 12.4415 109.993 12.5147 110.323 12.684C110.654 12.8533 110.929 13.1118 111.118 13.4296C111.472 13.0971 111.891 12.8404 112.35 12.6758C112.809 12.5112 113.297 12.4421 113.783 12.4728C114.256 12.4499 114.728 12.5378 115.16 12.7294C115.592 12.9209 115.973 13.2107 116.271 13.5752C116.618 13.2011 117.045 12.9082 117.52 12.7175C117.996 12.5269 118.508 12.4433 119.02 12.4728C119.478 12.4516 119.936 12.5247 120.364 12.6876C120.792 12.8505 121.182 13.0996 121.508 13.4192C121.826 13.7525 122.074 14.1465 122.234 14.5774C122.395 15.0082 122.465 15.4669 122.442 15.9256V17.9328C122.442 18.328 122.62 18.5256 122.956 18.5256C123.119 18.5331 123.281 18.5156 123.439 18.4736C123.656 18.4736 123.771 18.5568 123.785 18.7232L123.879 20.0232Z" fill="#1D2130"/>
<path d="M0.818406 11.3704C1.59267 8.28648 3.38586 5.54789 5.91244 3.59072C8.43902 1.63355 11.5537 0.570312 14.7606 0.570312C17.9675 0.570312 21.0822 1.63355 23.6088 3.59072C26.1354 5.54789 27.9286 8.28648 28.7029 11.3704H27.4435C25.319 11.3394 23.2381 11.9686 21.493 13.1696C21.3923 13.2419 21.2871 13.3079 21.1782 13.3672H21.0312C20.9223 13.3079 20.8171 13.2419 20.7164 13.1696C18.9558 11.9964 16.8823 11.3698 14.7606 11.3698C12.639 11.3698 10.5655 11.9964 8.80488 13.1696C8.70417 13.2419 8.59902 13.3079 8.49004 13.3672H8.34312C8.23414 13.3079 8.12899 13.2419 8.02828 13.1696C6.28314 11.9686 4.20224 11.3394 2.07777 11.3704H0.818406ZM25.1766 17.8912C25.8231 17.3923 26.6244 17.1313 27.4435 17.1528H29.1331V13.8144H27.4435C26.0007 13.7971 24.5909 14.2422 23.424 15.0832C22.7674 15.563 21.973 15.8218 21.1572 15.8218C20.3413 15.8218 19.547 15.563 18.8903 15.0832C17.6938 14.2578 16.2709 13.8154 14.8131 13.8154C13.3553 13.8154 11.9324 14.2578 10.7359 15.0832C10.0793 15.563 9.28487 15.8218 8.46905 15.8218C7.65324 15.8218 6.85885 15.563 6.2022 15.0832C5.02091 14.2314 3.59089 13.7858 2.13024 13.8144H0.388123V17.1528H2.07777C2.89689 17.1313 3.69814 17.3923 4.34463 17.8912C5.53894 18.7171 6.96022 19.16 8.41658 19.16C9.87294 19.16 11.2942 18.7171 12.4885 17.8912C13.1358 17.3938 13.9365 17.133 14.7554 17.1528C15.5748 17.1296 16.3766 17.3907 17.0222 17.8912C18.2187 18.7166 19.6416 19.1591 21.0994 19.1591C22.5573 19.1591 23.9802 18.7166 25.1766 17.8912ZM25.1766 23.8608C25.8231 23.3619 26.6244 23.1009 27.4435 23.1224H29.1331V19.784H27.4435C26.0007 19.7667 24.5909 20.2118 23.424 21.0528C22.7674 21.5326 21.973 21.7914 21.1572 21.7914C20.3413 21.7914 19.547 21.5326 18.8903 21.0528C17.6938 20.2274 16.2709 19.785 14.8131 19.785C13.3553 19.785 11.9324 20.2274 10.7359 21.0528C10.0793 21.5326 9.28487 21.7914 8.46905 21.7914C7.65324 21.7914 6.85885 21.5326 6.2022 21.0528C5.02091 20.201 3.59089 19.7554 2.13024 19.784H0.388123V23.1224H2.07777C2.89689 23.1009 3.69814 23.3619 4.34463 23.8608C5.53894 24.6867 6.96022 25.1296 8.41658 25.1296C9.87294 25.1296 11.2942 24.6867 12.4885 23.8608C13.1358 23.3634 13.9365 23.1026 14.7554 23.1224C15.5748 23.0992 16.3766 23.3603 17.0222 23.8608C18.2187 24.6862 19.6416 25.1287 21.0994 25.1287C22.5573 25.1287 23.9802 24.6862 25.1766 23.8608Z" fill="#1D2130"/>
</g>
</svg>
