<svg width="138" height="32" viewBox="0 0 138 32" fill="none" xmlns="http://www.w3.org/2000/svg">
<g opacity="0.6">
<path d="M33.6484 7.63404H36.8138V22.951H33.6484V7.63404Z" fill="#1D2130"/>
<path d="M38.5864 17.704C38.5864 16.602 38.9121 15.5248 39.5222 14.609C40.1322 13.6932 40.9992 12.9799 42.0133 12.5597C43.0273 12.1394 44.1427 12.0311 45.2181 12.2484C46.2935 12.4657 47.2804 12.9989 48.0538 13.7803C48.8272 14.5618 49.3523 15.5564 49.5625 16.638C49.7726 17.7196 49.6584 18.8395 49.2343 19.8558C48.8102 20.8721 48.0952 21.739 47.1801 22.3466C46.265 22.9543 45.191 23.2753 44.0941 23.269C43.3665 23.2747 42.6452 23.1345 41.9723 22.8564C41.2994 22.5784 40.6886 22.1682 40.1756 21.6498C39.6626 21.1315 39.2578 20.5155 38.9849 19.8379C38.712 19.1604 38.5765 18.4349 38.5864 17.704ZM46.5208 17.704C46.5084 17.2289 46.3568 16.7681 46.085 16.3791C45.8132 15.9901 45.4333 15.6903 44.9928 15.517C44.5522 15.3438 44.0706 15.305 43.6082 15.4053C43.1458 15.5056 42.7231 15.7406 42.393 16.081C42.0629 16.4214 41.8399 16.852 41.7521 17.319C41.6643 17.786 41.7155 18.2687 41.8993 18.7066C42.0831 19.1445 42.3913 19.5183 42.7855 19.7811C43.1796 20.044 43.6421 20.1843 44.1152 20.1844C44.4372 20.1907 44.7572 20.1302 45.0549 20.0067C45.3527 19.8831 45.6219 19.6992 45.8457 19.4664C46.0695 19.2337 46.243 18.957 46.3556 18.6537C46.4681 18.3505 46.5172 18.0272 46.4997 17.704H46.5208Z" fill="#1D2130"/>
<path d="M62.126 12.457V22.4316C62.126 25.9508 59.3827 27.4454 56.6077 27.4454C55.629 27.5261 54.6472 27.3308 53.7729 26.8813C52.8987 26.4319 52.1666 25.7462 51.6593 24.9014L54.3287 23.3538C54.545 23.792 54.8891 24.1535 55.3151 24.3902C55.7411 24.6269 56.2288 24.7276 56.7133 24.6788C57.0218 24.717 57.335 24.6862 57.6304 24.5887C57.9258 24.4911 58.196 24.3292 58.4218 24.1145C58.6477 23.8998 58.8235 23.6376 58.9367 23.3467C59.0499 23.0557 59.0977 22.7433 59.0767 22.4316V21.467C58.7084 21.9157 58.241 22.2719 57.7117 22.5075C57.1824 22.743 56.6057 22.8513 56.0274 22.8238C54.6283 22.8238 53.2864 22.2654 52.297 21.2715C51.3077 20.2775 50.7519 18.9295 50.7519 17.5238C50.7519 16.1182 51.3077 14.7701 52.297 13.7762C53.2864 12.7822 54.6283 12.2238 56.0274 12.2238C56.6057 12.1964 57.1824 12.3047 57.7117 12.5402C58.241 12.7757 58.7084 13.132 59.0767 13.5806V12.5206L62.126 12.457ZM59.0767 17.492C59.0978 16.9849 58.9673 16.483 58.7022 16.051C58.437 15.6189 58.0493 15.2764 57.5888 15.0675C57.1284 14.8586 56.6162 14.7928 56.1183 14.8787C55.6203 14.9645 55.1593 15.1981 54.7945 15.5493C54.4298 15.9005 54.1779 16.3533 54.0713 16.8494C53.9648 17.3456 54.0084 17.8624 54.1965 18.3335C54.3847 18.8046 54.7088 19.2083 55.1272 19.4928C55.5456 19.7773 56.0392 19.9296 56.5444 19.93C56.8741 19.9539 57.2051 19.908 57.516 19.7954C57.827 19.6827 58.1109 19.5058 58.3496 19.2761C58.5882 19.0463 58.7762 18.7688 58.9015 18.4615C59.0267 18.1542 59.0864 17.8239 59.0767 17.492Z" fill="#1D2130"/>
<path d="M63.9091 17.704C63.9091 16.6029 64.2342 15.5266 64.8434 14.6112C65.4525 13.6958 66.3183 12.9825 67.3311 12.5616C68.3439 12.1407 69.4582 12.0311 70.533 12.2467C71.6078 12.4623 72.5948 12.9934 73.3691 13.7727C74.1433 14.5521 74.6701 15.5447 74.8826 16.6249C75.0952 17.7051 74.984 18.8243 74.5631 19.841C74.1422 20.8577 73.4306 21.7261 72.5183 22.3363C71.6059 22.9465 70.5339 23.2711 69.4379 23.269C68.709 23.2761 67.986 23.137 67.3113 22.8597C66.6367 22.5824 66.0239 22.1726 65.5089 21.6542C64.994 21.1359 64.5872 20.5195 64.3125 19.8412C64.0378 19.1629 63.9006 18.4363 63.9091 17.704ZM71.8435 17.704C71.8311 17.2285 71.6792 16.7672 71.4069 16.378C71.1347 15.9888 70.7541 15.689 70.313 15.5161C69.8719 15.3432 69.3898 15.305 68.9271 15.4061C68.4644 15.5073 68.0417 15.7434 67.712 16.0848C67.3823 16.4263 67.1603 16.8579 67.0737 17.3256C66.987 17.7932 67.0397 18.2762 67.2251 18.7139C67.4105 19.1517 67.7204 19.5247 68.1159 19.7863C68.5114 20.0478 68.9749 20.1863 69.4484 20.1844C69.7705 20.1907 70.0904 20.1302 70.3882 20.0067C70.686 19.8831 70.9551 19.6992 71.1789 19.4664C71.4027 19.2337 71.5763 18.957 71.6889 18.6537C71.8014 18.3505 71.8505 18.0272 71.833 17.704H71.8435Z" fill="#1D2130"/>
<path d="M76.4333 9.64798C76.4333 9.27481 76.5435 8.91001 76.7499 8.59973C76.9562 8.28944 77.2496 8.04761 77.5927 7.9048C77.9359 7.76199 78.3135 7.72463 78.6778 7.79743C79.0422 7.87023 79.3768 8.04994 79.6395 8.31381C79.9021 8.57768 80.081 8.91388 80.1535 9.27988C80.2259 9.64589 80.1887 10.0253 80.0466 10.37C79.9044 10.7148 79.6637 11.0095 79.3549 11.2168C79.046 11.4241 78.6829 11.5348 78.3114 11.5348C77.815 11.5293 77.3405 11.3287 76.9895 10.9761C76.6385 10.6234 76.4388 10.1467 76.4333 9.64798ZM76.7393 12.457H79.9047V22.951H76.7393V12.457Z" fill="#1D2130"/>
<path d="M93.4523 17.7041C93.4878 18.402 93.3855 19.1 93.1514 19.7581C92.9173 20.4161 92.556 21.0212 92.0882 21.5384C91.6204 22.0556 91.0555 22.4748 90.4258 22.7718C89.7962 23.0688 89.1143 23.2378 88.4194 23.2691C87.8297 23.3085 87.2388 23.2136 86.6907 22.9915C86.1426 22.7694 85.6515 22.4259 85.2541 21.9865V27.1699H82.0887V12.4571H85.2541V13.4429C85.652 13.0048 86.1435 12.6628 86.6916 12.4425C87.2398 12.2222 87.8305 12.1294 88.4194 12.1709C89.1115 12.2022 89.7907 12.3701 90.4182 12.6651C91.0457 12.9602 91.6092 13.3765 92.0765 13.8903C92.5439 14.4041 92.9059 15.0053 93.142 15.6597C93.378 16.3141 93.4835 17.0087 93.4523 17.7041ZM90.2869 17.7041C90.2745 17.2117 90.1176 16.7341 89.8361 16.3309C89.5546 15.9278 89.1608 15.6171 88.7043 15.4378C88.2477 15.2585 87.7486 15.2185 87.2696 15.323C86.7905 15.4274 86.3528 15.6716 86.0113 16.0249C85.6698 16.3782 85.4397 16.8249 85.3498 17.3091C85.2599 17.7932 85.3143 18.2932 85.5061 18.7464C85.6979 19.1997 86.0186 19.5859 86.428 19.8568C86.8374 20.1277 87.3172 20.2712 87.8074 20.2693C88.1432 20.2836 88.4782 20.2264 88.7904 20.1016C89.1027 19.9767 89.3851 19.7869 89.6192 19.5447C89.8533 19.3025 90.0339 19.0133 90.1489 18.6961C90.264 18.3789 90.311 18.0408 90.2869 17.7041Z" fill="#1D2130"/>
<path d="M103.085 19.8028C103.085 22.2196 100.975 23.2478 98.7384 23.2478C97.8261 23.3303 96.9101 23.136 96.1088 22.6901C95.3076 22.2441 94.6578 21.567 94.2436 20.7462L96.9658 19.1986C97.0736 19.5768 97.3075 19.9064 97.6282 20.1322C97.949 20.3579 98.3372 20.4662 98.7278 20.4388C99.477 20.4388 99.8568 20.2056 99.8568 19.7816C99.8568 18.6262 94.7184 19.241 94.7184 15.6052C94.7184 13.3156 96.6387 12.1708 98.8123 12.1708C99.6385 12.1336 100.459 12.322 101.187 12.7158C101.916 13.1095 102.524 13.6941 102.948 14.4074L100.226 15.849C100.106 15.5755 99.9093 15.3429 99.6603 15.1793C99.4113 15.0156 99.1204 14.9279 98.8228 14.9268C98.2741 14.9268 97.9471 15.1388 97.9471 15.5098C97.9471 16.7182 103.085 15.9232 103.085 19.8028Z" fill="#1D2130"/>
<path d="M114.554 12.4571V22.9511H111.389V21.9653C111.03 22.4016 110.573 22.747 110.056 22.9734C109.539 23.1999 108.977 23.3012 108.414 23.2691C106.303 23.2691 104.499 21.7533 104.499 18.9231V12.4571H107.665V18.4461C107.64 18.6965 107.669 18.9493 107.751 19.1871C107.833 19.4249 107.965 19.642 108.139 19.8234C108.312 20.0048 108.523 20.1462 108.756 20.2379C108.99 20.3295 109.24 20.3691 109.49 20.3541C110.629 20.3541 111.431 19.6757 111.431 18.2341V12.4571H114.554Z" fill="#1D2130"/>
<path d="M132.491 16.5062V22.951H129.326V16.7818C129.326 15.7218 128.83 15.0646 127.828 15.0646C126.825 15.0646 126.192 15.796 126.192 17.0362V22.951H123.027V16.7818C123.027 15.7218 122.531 15.0646 121.529 15.0646C120.526 15.0646 119.893 15.796 119.893 17.0362V22.951H116.728V12.457H119.893V13.4216C120.221 12.9954 120.649 12.658 121.139 12.4396C121.629 12.2212 122.166 12.1288 122.7 12.1708C123.235 12.1428 123.769 12.255 124.248 12.4966C124.727 12.7382 125.135 13.1008 125.433 13.5488C125.78 13.0808 126.241 12.7089 126.77 12.4679C127.3 12.2269 127.881 12.1247 128.461 12.1708C130.93 12.1708 132.491 13.888 132.491 16.5062Z" fill="#1D2130"/>
<path d="M14.7936 4.87805V0.373047H0.655029V31.325H14.7936V26.82C11.8973 26.82 9.11962 25.6642 7.07165 23.6067C5.02367 21.5492 3.87313 18.7587 3.87313 15.849C3.87313 12.9394 5.02367 10.1488 7.07165 8.09138C9.11962 6.03392 11.8973 4.87805 14.7936 4.87805Z" fill="#1D2130"/>
<path d="M14.7936 4.87805V26.82C17.6898 26.82 20.4674 25.6642 22.5154 23.6067C24.5634 21.5493 25.7139 18.7587 25.7139 15.849C25.7139 12.9394 24.5634 10.1488 22.5154 8.09138C20.4674 6.03392 17.6898 4.87805 14.7936 4.87805Z" fill="#1D2130"/>
<path d="M135.15 12.3934C136.432 12.3934 137.472 11.3493 137.472 10.0614C137.472 8.77349 136.432 7.72942 135.15 7.72942C133.868 7.72942 132.829 8.77349 132.829 10.0614C132.829 11.3493 133.868 12.3934 135.15 12.3934Z" fill="#1D2130"/>
</g>
</svg>
