<svg width="143" height="29" viewBox="0 0 143 29" fill="none" xmlns="http://www.w3.org/2000/svg">
<g opacity="0.6">
<path d="M21.3558 13.1377C20.9581 13.5381 20.6535 14.0213 20.4638 14.5529C20.274 15.0844 20.2038 15.6513 20.2581 16.2132L20.2392 16.1943C20.295 16.8556 20.2058 17.5212 19.978 18.1445C19.7502 18.7678 19.3891 19.3339 18.92 19.8032C18.451 20.2725 17.8852 20.6338 17.2622 20.8617C16.6391 21.0896 15.9739 21.1788 15.3129 21.123L15.3318 21.1419C14.5411 21.0683 13.7469 21.2404 13.0576 21.6349C12.3683 22.0294 11.8173 22.6269 11.4799 23.3462C11.1424 24.0654 11.0349 24.8712 11.172 25.6538C11.3091 26.4364 11.6841 27.1576 12.2459 27.7192C12.8076 28.2807 13.5289 28.6553 14.3112 28.7917C15.0935 28.9281 15.8989 28.8199 16.6174 28.4816C17.336 28.1433 17.9328 27.5916 18.3264 26.9016C18.7201 26.2115 18.8914 25.4168 18.8171 24.6258L18.8371 24.6447C18.7813 23.9834 18.8704 23.3178 19.0982 22.6945C19.3261 22.0711 19.6871 21.5051 20.1562 21.0358C20.6253 20.5665 21.191 20.2052 21.8141 19.9773C22.4371 19.7493 23.1023 19.6602 23.7633 19.716L23.7434 19.6971C24.3893 19.7552 25.0394 19.6493 25.6335 19.3891C26.2276 19.1289 26.7464 18.7228 27.1419 18.2086C27.5373 17.6944 27.7967 17.0886 27.8958 16.4474C27.995 15.8062 27.9308 15.1503 27.7091 14.5406C27.4874 13.9308 27.1155 13.3869 26.6278 12.9593C26.1401 12.5316 25.5524 12.234 24.9192 12.0942C24.2859 11.9543 23.6276 11.9766 23.0052 12.159C22.3829 12.3414 21.8166 12.6781 21.359 13.1377H21.3558Z" fill="#1D2130"/>
<path d="M13.6137 18.666L13.5938 18.6471C14.1556 18.7037 14.723 18.6347 15.2549 18.4451C15.7868 18.2554 16.2699 17.9499 16.6694 17.5506C17.0688 17.1513 17.3745 16.6681 17.5645 16.1361C17.7544 15.6041 17.8238 15.0365 17.7676 14.4743L17.7875 14.4932C17.7317 13.8319 17.8209 13.1663 18.0487 12.543C18.2765 11.9197 18.6376 11.3536 19.1067 10.8843C19.5757 10.415 20.1415 10.0538 20.7645 9.82584C21.3876 9.59789 22.0528 9.50872 22.7138 9.56454L22.6939 9.54565C23.4846 9.61995 24.2791 9.44838 24.9688 9.05435C25.6585 8.66033 26.21 8.06302 26.5479 7.34391C26.8859 6.6248 26.9939 5.81889 26.8572 5.03611C26.7205 4.25332 26.3458 3.53178 25.7842 2.96989C25.2226 2.408 24.5014 2.03311 23.719 1.89637C22.9366 1.75963 22.1311 1.86769 21.4123 2.20581C20.6936 2.54393 20.0966 3.09565 19.7027 3.78571C19.3089 4.47578 19.1374 5.27059 19.2117 6.06175L19.1928 6.04179C19.2488 6.70318 19.1598 7.36882 18.932 7.99223C18.7042 8.61564 18.3432 9.18178 17.8741 9.65113C17.405 10.1205 16.8391 10.4817 16.216 10.7096C15.5929 10.9375 14.9276 11.0265 14.2665 10.9705L14.2854 10.9904C13.7236 10.9338 13.1562 11.0028 12.6243 11.1924C12.0924 11.382 11.6093 11.6876 11.2098 12.0869C10.8104 12.4862 10.5047 12.9694 10.3147 13.5014C10.1248 14.0334 10.0554 14.601 10.1116 15.1631L10.0927 15.1442C10.1483 15.8056 10.0591 16.471 9.83118 17.0943C9.60328 17.7175 9.24222 18.2835 8.77319 18.7528C8.30416 19.222 7.73844 19.5833 7.11551 19.8113C6.49258 20.0393 5.82743 20.1286 5.16645 20.073L5.18534 20.0919C4.39458 20.0176 3.60015 20.1891 2.91043 20.5831C2.2207 20.9772 1.66925 21.5745 1.3313 22.2936C0.993348 23.0127 0.885342 23.8186 1.02202 24.6014C1.15869 25.3842 1.53339 26.1057 2.09501 26.6676C2.65662 27.2295 3.37781 27.6044 4.16021 27.7411C4.94261 27.8779 5.74812 27.7698 6.46688 27.4317C7.18563 27.0936 7.78264 26.5419 8.17648 25.8518C8.57031 25.1617 8.74179 24.3669 8.66753 23.5758L8.68747 23.5947C8.63167 22.9333 8.7208 22.2677 8.94864 21.6444C9.17647 21.0211 9.53753 20.455 10.0066 19.9857C10.4757 19.5164 11.0415 19.1552 11.6645 18.9272C12.2875 18.6993 12.9527 18.6101 13.6137 18.666Z" fill="#1D2130"/>
<path d="M6.58015 16.5586C6.97793 16.1584 7.28247 15.6752 7.47205 15.1435C7.66163 14.6119 7.73156 14.045 7.67686 13.4832L7.6968 13.5021C7.64096 12.8405 7.73013 12.1748 7.95809 11.5513C8.18605 10.9278 8.54729 10.3616 9.0166 9.89229C9.48591 9.42295 10.052 9.06177 10.6752 8.83396C11.2985 8.60616 11.964 8.51723 12.6252 8.57338L12.6052 8.55448C13.3957 8.62857 14.1898 8.45691 14.8792 8.06291C15.5686 7.66891 16.1198 7.07175 16.4575 6.35287C16.7953 5.63398 16.9032 4.82836 16.7665 4.04587C16.6299 3.26339 16.2553 2.54212 15.6939 1.98043C15.1325 1.41874 14.4115 1.04398 13.6294 0.907242C12.8473 0.770507 12.0421 0.878458 11.3236 1.21637C10.605 1.55429 10.0082 2.10572 9.61437 2.79546C9.22057 3.48521 9.049 4.2797 9.12305 5.07058L9.10416 5.05168C9.15996 5.71302 9.07083 6.37858 8.84299 7.00191C8.61516 7.62523 8.2541 8.1913 7.78503 8.6606C7.31596 9.1299 6.75017 9.49113 6.12715 9.71908C5.50413 9.94703 4.8389 10.0362 4.17789 9.98038L4.19677 9.99928C3.55089 9.94133 2.90084 10.0474 2.30685 10.3077C1.71286 10.5681 1.19416 10.9742 0.79881 11.4884C0.403458 12.0027 0.144249 12.6085 0.0452039 13.2497C-0.0538415 13.8909 0.0104804 14.5467 0.23221 15.1564C0.453939 15.7661 0.825902 16.3099 1.31363 16.7375C1.80136 17.1651 2.38907 17.4625 3.0223 17.6024C3.65553 17.7422 4.3138 17.7199 4.9361 17.5374C5.55841 17.355 6.12461 17.0183 6.58225 16.5586H6.58015Z" fill="#1D2130"/>
<path d="M39.09 6.0859H42.2069V21.2616H39.09V6.0859Z" fill="#1D2130"/>
<path d="M43.9722 16.0651C43.9678 14.9745 44.2871 13.9072 44.8895 12.9983C45.4919 12.0894 46.3504 11.3798 47.3562 10.9594C48.362 10.5391 49.4699 10.4268 50.5395 10.6369C51.6092 10.847 52.5924 11.37 53.3647 12.1396C54.1371 12.9092 54.6637 13.8908 54.878 14.9601C55.0923 16.0294 54.9845 17.1383 54.5684 18.1463C54.1522 19.1543 53.4465 20.016 52.5404 20.6224C51.6344 21.2287 50.5689 21.5524 49.4788 21.5524C48.7553 21.5607 48.0373 21.4245 47.3669 21.152C46.6965 20.8794 46.0872 20.4759 45.5745 19.965C45.0618 19.4541 44.656 18.8461 44.3809 18.1764C44.1058 17.5068 43.9668 16.7891 43.9722 16.0651ZM51.8685 16.0651C51.8555 15.595 51.7043 15.1392 51.4338 14.7546C51.1632 14.3701 50.7854 14.0738 50.3475 13.9029C49.9096 13.732 49.4311 13.694 48.9718 13.7938C48.5124 13.8935 48.0927 14.1264 47.7649 14.4635C47.4372 14.8006 47.2161 15.2269 47.1292 15.6891C47.0423 16.1512 47.0935 16.6288 47.2764 17.062C47.4593 17.4952 47.7657 17.8648 48.1575 18.1247C48.5492 18.3846 49.0088 18.5232 49.4788 18.5232C49.8007 18.5318 50.1209 18.4735 50.4192 18.3522C50.7175 18.2308 50.9874 18.0489 51.2119 17.8179C51.4365 17.587 51.6107 17.312 51.7237 17.0103C51.8367 16.7087 51.886 16.3868 51.8685 16.0651Z" fill="#1D2130"/>
<path d="M67.4082 10.8676V20.7376C67.4082 24.2299 64.6858 25.7062 61.9225 25.7062C60.9496 25.7791 59.9754 25.5825 59.1068 25.1379C58.2382 24.6934 57.5087 24.0182 56.9983 23.1862L59.6577 21.648C59.8722 22.0816 60.214 22.4394 60.6373 22.6734C61.0606 22.9074 61.5453 23.0065 62.0264 22.9573C62.3339 23 62.647 22.9729 62.9427 22.8781C63.2383 22.7832 63.5088 22.6232 63.7342 22.4096C63.9596 22.1961 64.1342 21.9346 64.2449 21.6444C64.3557 21.3543 64.3998 21.0429 64.3741 20.7334V19.7832C64.0091 20.23 63.5445 20.585 63.0176 20.8197C62.4907 21.0543 61.9161 21.1622 61.34 21.1345C59.9692 21.0913 58.669 20.516 57.7146 19.5306C56.7602 18.5451 56.2265 17.2268 56.2265 15.8546C56.2265 14.4824 56.7602 13.1641 57.7146 12.1786C58.669 11.1932 59.9692 10.6179 61.34 10.5747C61.9161 10.547 62.4907 10.6549 63.0176 10.8895C63.5445 11.1242 64.0091 11.4792 64.3741 11.926V10.8655L67.4082 10.8676ZM64.3752 15.8562C64.3961 15.3536 64.2662 14.8562 64.0023 14.4281C63.7383 14 63.3523 13.6607 62.894 13.454C62.4357 13.2472 61.926 13.1823 61.4306 13.2678C60.9351 13.3533 60.4766 13.5852 60.1139 13.9336C59.7513 14.282 59.5012 14.731 59.3958 15.2228C59.2904 15.7147 59.3345 16.2268 59.5225 16.6934C59.7105 17.1599 60.0337 17.5595 60.4506 17.8407C60.8674 18.1218 61.3589 18.2718 61.8616 18.2712C62.1891 18.294 62.5178 18.248 62.8264 18.1361C63.1351 18.0242 63.4169 17.8488 63.6536 17.6213C63.8904 17.3938 64.077 17.1192 64.2012 16.8152C64.3255 16.5112 64.3847 16.1845 64.3752 15.8562Z" fill="#1D2130"/>
<path d="M69.1734 16.0651C69.169 14.9745 69.4882 13.9072 70.0907 12.9983C70.6931 12.0894 71.5516 11.3798 72.5574 10.9594C73.5632 10.5391 74.6711 10.4268 75.7407 10.6369C76.8103 10.847 77.7936 11.37 78.5659 12.1396C79.3382 12.9092 79.8649 13.8908 80.0792 14.9601C80.2934 16.0294 80.1857 17.1383 79.7695 18.1463C79.3534 19.1543 78.6476 20.016 77.7416 20.6224C76.8356 21.2287 75.77 21.5524 74.68 21.5524C73.9564 21.5607 73.2385 21.4245 72.5681 21.152C71.8977 20.8794 71.2884 20.4759 70.7757 19.965C70.263 19.4541 69.8572 18.8461 69.5821 18.1764C69.307 17.5068 69.168 16.7891 69.1734 16.0651ZM77.0697 16.0651C77.0567 15.595 76.9055 15.1392 76.6349 14.7546C76.3644 14.3701 75.9866 14.0738 75.5487 13.9029C75.1108 13.732 74.6323 13.694 74.1729 13.7938C73.7136 13.8935 73.2938 14.1264 72.9661 14.4635C72.6384 14.8006 72.4172 15.2269 72.3303 15.6891C72.2435 16.1512 72.2946 16.6288 72.4775 17.062C72.6604 17.4952 72.9669 17.8648 73.3586 18.1247C73.7504 18.3846 74.21 18.5232 74.68 18.5232C75.0019 18.5318 75.3221 18.4735 75.6204 18.3522C75.9187 18.2308 76.1886 18.0489 76.4131 17.8179C76.6376 17.587 76.8119 17.312 76.9249 17.0103C77.0379 16.7087 77.0872 16.3868 77.0697 16.0651Z" fill="#1D2130"/>
<path d="M81.6402 8.08196C81.6402 7.71189 81.7499 7.35013 81.9554 7.04243C82.1609 6.73473 82.4529 6.4949 82.7947 6.35328C83.1364 6.21166 83.5124 6.17461 83.8752 6.24681C84.238 6.319 84.5712 6.49721 84.8328 6.75889C85.0943 7.02057 85.2724 7.35396 85.3446 7.71692C85.4167 8.07988 85.3797 8.4561 85.2382 8.79799C85.0966 9.13989 84.8569 9.43212 84.5494 9.63772C84.2418 9.84332 83.8802 9.95306 83.5103 9.95306C83.0159 9.94813 82.543 9.74942 82.1934 9.39958C81.8437 9.04974 81.6451 8.57668 81.6402 8.08196ZM81.955 10.8676H85.073V21.2626H81.9508L81.955 10.8676Z" fill="#1D2130"/>
<path d="M98.5317 16.0651C98.5677 16.7521 98.4676 17.4394 98.2372 18.0876C98.0068 18.7358 97.6506 19.332 97.1891 19.8419C96.7275 20.3519 96.1698 20.7655 95.548 21.0591C94.9261 21.3526 94.2524 21.5203 93.5655 21.5524C92.9879 21.5839 92.4105 21.4865 91.8752 21.2671C91.3399 21.0477 90.8601 20.7119 90.4706 20.284V25.4195H87.3536V10.8676H90.4706V11.8441C90.8603 11.4165 91.3401 11.081 91.8754 10.8618C92.4107 10.6426 92.988 10.5452 93.5655 10.5767C94.2525 10.6087 94.9264 10.7763 95.5484 11.0699C96.1704 11.3635 96.7282 11.7772 97.1898 12.2873C97.6513 12.7974 98.0075 13.3938 98.2378 14.0421C98.4681 14.6905 98.568 15.378 98.5317 16.0651ZM95.4147 16.0651C95.4025 15.5786 95.2472 15.1065 94.9682 14.7079C94.6891 14.3093 94.2988 14.0019 93.846 13.8241C93.3932 13.6464 92.898 13.6062 92.4225 13.7087C91.947 13.8111 91.5122 14.0515 91.1727 14.3999C90.8331 14.7484 90.6037 15.1892 90.5134 15.6674C90.423 16.1456 90.4756 16.6398 90.6646 17.0882C90.8536 17.5366 91.1705 17.9193 91.5758 18.1884C91.9811 18.4574 92.4568 18.6009 92.9432 18.6008C93.2771 18.6157 93.6104 18.5598 93.9212 18.4368C94.232 18.3137 94.5133 18.1264 94.7467 17.8869C94.9801 17.6475 95.1602 17.3614 95.2753 17.0474C95.3905 16.7335 95.438 16.3987 95.4147 16.0651Z" fill="#1D2130"/>
<path d="M108.15 18.1431C108.15 20.5339 106.073 21.5524 103.829 21.5524C102.923 21.6346 102.012 21.4428 101.216 21.0017C100.42 20.5607 99.7736 19.8908 99.3618 19.0786L102.062 17.5404C102.171 17.9158 102.406 18.2424 102.727 18.4656C103.048 18.6888 103.435 18.7951 103.825 18.7668C104.572 18.7668 104.947 18.5379 104.947 18.1231C104.947 16.9786 99.8351 17.5824 99.8351 13.9861C99.8351 11.7192 101.747 10.5768 103.908 10.5768C104.72 10.5511 105.525 10.7438 106.237 11.135C106.95 11.5261 107.544 12.1014 107.959 12.8007L105.3 14.235C105.183 13.9627 104.989 13.7308 104.742 13.5681C104.494 13.4055 104.204 13.3194 103.908 13.3204C103.368 13.3204 103.035 13.5304 103.035 13.9021C103.039 15.0876 108.15 14.2969 108.15 18.1431Z" fill="#1D2130"/>
<path d="M119.536 10.8676V21.2626H116.419V20.2851C116.059 20.7164 115.603 21.0563 115.087 21.2768C114.57 21.4973 114.009 21.5921 113.449 21.5535C111.35 21.5535 109.566 20.0572 109.566 17.2485V10.8676H112.683V16.7917C112.657 17.0393 112.685 17.2896 112.765 17.5252C112.846 17.7608 112.977 17.976 113.149 18.1559C113.321 18.3357 113.53 18.476 113.761 18.5668C113.993 18.6576 114.242 18.6968 114.49 18.6817C115.633 18.6817 116.422 18.0171 116.422 16.5408V10.8708L119.536 10.8676Z" fill="#1D2130"/>
<path d="M137.409 14.8797V21.2616H134.292V15.1496C134.292 14.1101 133.793 13.4454 132.796 13.4454C131.757 13.4454 131.175 14.1731 131.175 15.3995V21.2616H128.059V15.1496C128.059 14.1101 127.56 13.4454 126.562 13.4454C125.523 13.4454 124.942 14.1731 124.942 15.3995V21.2616H121.825V10.8666H124.942V11.8221C125.265 11.3982 125.689 11.0621 126.176 10.8443C126.662 10.6266 127.195 10.5343 127.726 10.5758C128.26 10.5497 128.791 10.6623 129.268 10.9026C129.744 11.1429 130.151 11.5028 130.448 11.9471C130.793 11.4823 131.251 11.1127 131.777 10.8729C132.304 10.633 132.883 10.5308 133.461 10.5758C135.846 10.5768 137.409 12.281 137.409 14.8797Z" fill="#1D2130"/>
<path d="M140.045 10.8036C141.323 10.8036 142.358 9.76749 142.358 8.4894C142.358 7.2113 141.323 6.1752 140.045 6.1752C138.768 6.1752 137.732 7.2113 137.732 8.4894C137.732 9.76749 138.768 10.8036 140.045 10.8036Z" fill="#1D2130"/>
</g>
</svg>
