<svg width="127" height="30" viewBox="0 0 127 30" fill="none" xmlns="http://www.w3.org/2000/svg">
<g opacity="0.6">
<path d="M37.0633 8.63451H40.2286V21.371H37.0633V8.63451ZM41.4842 16.562C41.4842 13.412 43.4256 11.5325 46.4222 11.5325C49.4187 11.5325 51.3601 13.412 51.3601 16.562C51.3601 19.712 49.4609 21.602 46.4222 21.602C43.3834 21.602 41.4842 19.7645 41.4842 16.562ZM48.1842 16.562C48.1842 14.8295 47.4984 13.811 46.4222 13.811C45.3459 13.811 44.6707 14.861 44.6707 16.562C44.6707 18.263 45.3354 19.292 46.4222 19.292C47.5089 19.292 48.1842 18.326 48.1842 16.5725V16.562ZM52.5524 21.9905H55.5911C55.7357 22.3102 55.9802 22.5749 56.2882 22.7452C56.5962 22.9155 56.9512 22.9822 57.3004 22.9355C58.5032 22.9355 59.1363 22.2845 59.1363 21.3395V19.5755H59.073C58.8208 20.1161 58.4116 20.5692 57.8981 20.8761C57.3847 21.1831 56.7906 21.3298 56.1925 21.2975C53.8818 21.2975 52.3519 19.544 52.3519 16.5305C52.3519 13.517 53.808 11.6165 56.2347 11.6165C56.8515 11.5924 57.461 11.7566 57.9815 12.0868C58.502 12.4171 58.9086 12.8978 59.1468 13.4645V11.711H62.3122V21.266C62.3122 23.5655 60.2758 24.9935 57.2687 24.9935C54.4727 24.9935 52.7317 23.744 52.5524 22.001V21.9905ZM59.1468 16.5515C59.1468 15.0185 58.4399 14.0525 57.3215 14.0525C56.2031 14.0525 55.5172 15.008 55.5172 16.5515C55.5172 18.095 56.1925 18.9665 57.3215 18.9665C58.4505 18.9665 59.1468 18.116 59.1468 16.562V16.5515ZM63.5045 16.5515C63.5045 13.4015 65.4459 11.522 68.4424 11.522C71.4389 11.522 73.3909 13.4015 73.3909 16.5515C73.3909 19.7015 71.4917 21.5915 68.4424 21.5915C65.3931 21.5915 63.5045 19.7645 63.5045 16.562V16.5515ZM70.2044 16.5515C70.2044 14.819 69.5186 13.8005 68.4424 13.8005C67.3662 13.8005 66.7437 14.861 66.7437 16.5725C66.7437 18.284 67.4084 19.3025 68.4846 19.3025C69.5608 19.3025 70.2044 18.326 70.2044 16.5725V16.5515ZM74.5937 9.42201C74.5854 9.10397 74.6722 8.79064 74.843 8.52175C75.0139 8.25285 75.2612 8.04049 75.5534 7.91159C75.8457 7.78269 76.1699 7.74306 76.4848 7.79772C76.7998 7.85237 77.0913 7.99886 77.3225 8.2186C77.5537 8.43834 77.7141 8.72145 77.7834 9.03203C77.8527 9.3426 77.8278 9.66667 77.7118 9.96314C77.5958 10.2596 77.394 10.5151 77.1319 10.6973C76.8699 10.8795 76.5593 10.9802 76.2397 10.9865C76.0278 11.001 75.8152 10.9717 75.6152 10.9005C75.4152 10.8293 75.2322 10.7178 75.0777 10.5728C74.9231 10.4279 74.8003 10.2527 74.717 10.0582C74.6337 9.86382 74.5918 9.65436 74.5937 9.44301V9.42201ZM74.5937 11.732H77.759V21.371H74.5937V11.732ZM89.2492 16.5515C89.2492 19.7015 87.8459 21.497 85.4403 21.497C84.8234 21.5364 84.2093 21.3863 83.6809 21.0671C83.1525 20.7479 82.7354 20.2748 82.486 19.712H82.4226V24.458H79.2573V11.711H82.4226V13.433H82.486C82.7238 12.8609 83.133 12.3755 83.6578 12.043C84.1826 11.7105 84.7976 11.5469 85.4192 11.5745C87.8459 11.6165 89.2914 13.4225 89.2914 16.5725L89.2492 16.5515ZM86.0839 16.5515C86.0839 15.0185 85.377 14.042 84.2691 14.042C83.1612 14.042 82.4543 15.029 82.4437 16.5515C82.4332 18.074 83.1612 19.0505 84.2691 19.0505C85.377 19.0505 86.0839 18.095 86.0839 16.5725V16.5515ZM94.6831 11.5115C97.3103 11.5115 98.9035 12.7505 98.9774 14.735H96.0969C96.0969 14.0525 95.5272 13.622 94.6514 13.622C93.7757 13.622 93.3853 13.958 93.3853 14.4515C93.3853 14.945 93.7335 15.1025 94.4404 15.2495L96.4662 15.659C98.3971 16.0685 99.2201 16.8455 99.2201 18.305C99.2201 20.3 97.3947 21.581 94.7042 21.581C92.0136 21.581 90.2516 20.3 90.1144 18.3365H93.1637C93.2587 19.0505 93.8284 19.4705 94.7569 19.4705C95.6854 19.4705 96.1075 19.166 96.1075 18.662C96.1075 18.158 95.812 18.053 95.0524 17.8955L93.227 17.507C91.3384 17.1185 90.3465 16.121 90.3465 14.651C90.3677 12.761 92.0664 11.5325 94.6831 11.5325V11.5115ZM109.782 21.35H106.732V19.5545H106.669C106.502 20.1573 106.132 20.685 105.621 21.0498C105.111 21.4146 104.49 21.5946 103.863 21.56C103.382 21.5872 102.9 21.5114 102.452 21.3376C102.003 21.1639 101.596 20.8963 101.26 20.5529C100.924 20.2094 100.666 19.7983 100.503 19.3471C100.341 18.8959 100.277 18.4152 100.317 17.9375V11.711H103.483V17.213C103.483 18.3575 104.074 18.9665 105.055 18.9665C105.285 18.967 105.512 18.9185 105.722 18.8243C105.932 18.7301 106.119 18.5924 106.271 18.4204C106.423 18.2483 106.536 18.046 106.603 17.8269C106.67 17.6078 106.689 17.377 106.659 17.15V11.711H109.824L109.782 21.35ZM111.312 11.711H114.371V13.5695H114.435C114.603 12.9747 114.964 12.452 115.463 12.0834C115.961 11.7148 116.568 11.5211 117.189 11.5325C117.82 11.4822 118.448 11.6703 118.946 12.0594C119.445 12.4485 119.778 13.0101 119.879 13.6325H119.942C120.134 13.0035 120.53 12.4557 121.069 12.0755C121.608 11.6953 122.258 11.5043 122.918 11.5325C123.348 11.5181 123.777 11.594 124.176 11.7553C124.575 11.9165 124.936 12.1595 125.234 12.4685C125.533 12.7775 125.763 13.1455 125.909 13.5486C126.055 13.9518 126.115 14.381 126.083 14.8085V21.371H122.918V15.6485C122.918 14.5985 122.443 14.1155 121.557 14.1155C121.359 14.1138 121.163 14.1544 120.983 14.2344C120.802 14.3144 120.641 14.432 120.51 14.5793C120.379 14.7266 120.281 14.9001 120.224 15.0882C120.166 15.2762 120.149 15.4745 120.175 15.6695V21.371H117.168V15.6065C117.168 14.6405 116.693 14.1155 115.828 14.1155C115.628 14.1156 115.43 14.1578 115.248 14.2394C115.066 14.3211 114.903 14.4402 114.77 14.5891C114.637 14.7379 114.538 14.913 114.478 15.1029C114.419 15.2927 114.4 15.493 114.424 15.6905V21.371H111.259L111.312 11.711Z" fill="#1D2130"/>
<path d="M28.2109 9.21206C27.674 7.99024 26.9633 6.8516 26.1007 5.83107C24.8255 4.27742 23.2342 3.01013 21.4315 2.1126C19.6287 1.21508 17.6554 0.707664 15.6413 0.623761C13.6273 0.539858 11.6183 0.881364 9.74645 1.62581C7.87461 2.37025 6.18242 3.50075 4.78126 4.9429C3.38009 6.38505 2.30171 8.10615 1.6171 9.99293C0.932485 11.8797 0.657159 13.8894 0.809245 15.8897C0.96133 17.89 1.53738 19.8355 2.49947 21.5983C3.46157 23.3611 4.78789 24.9011 6.39116 26.1171C7.4199 26.9129 8.55662 27.5598 9.76753 28.0386C11.4652 28.7309 13.2822 29.0876 15.117 29.0886C18.9042 29.0802 22.5336 27.5779 25.2096 24.9109C27.8856 22.244 29.3899 18.6299 29.3926 14.8611C29.3954 12.917 28.993 10.9935 28.2109 9.21206ZM15.1064 3.51056C16.754 3.51039 18.3817 3.86876 19.8755 4.56056C19.5113 4.71719 19.1283 4.82659 18.736 4.88607C17.4452 5.07201 16.2494 5.6684 15.3271 6.58619C14.4048 7.50399 13.8055 8.69399 13.6187 9.97856C13.5367 10.699 13.2074 11.3692 12.6865 11.8761C12.1656 12.383 11.4849 12.6956 10.7593 12.7611C9.4685 12.947 8.27271 13.5434 7.35044 14.4612C6.42817 15.379 5.82888 16.569 5.64203 17.8536C5.57877 18.5386 5.28508 19.1823 4.80849 19.6806C3.98619 17.9515 3.61679 16.0435 3.73467 14.1342C3.85255 12.2248 4.45387 10.3762 5.48267 8.7603C6.51148 7.1444 7.93434 5.81376 9.61883 4.89221C11.3033 3.97065 13.1947 3.48814 15.117 3.48956L15.1064 3.51056ZM6.38061 22.2111C6.50722 22.0956 6.63384 21.9906 6.76045 21.8646C7.69914 20.9589 8.30167 19.7634 8.46974 18.4731C8.53788 17.7478 8.86329 17.0703 9.38768 16.5621C9.89229 16.0393 10.5715 15.7182 11.2974 15.6591C12.5883 15.4731 13.7841 14.8767 14.7063 13.9589C15.6286 13.0411 16.2279 11.8511 16.4147 10.5666C16.4604 9.80795 16.7875 9.09325 17.3327 8.56107C17.8498 8.04851 18.5354 7.73902 19.2636 7.68956C20.4494 7.5272 21.5554 7.00257 22.4289 6.18807C23.4235 7.00924 24.2662 7.99711 24.919 9.10707C24.8789 9.16098 24.8329 9.21029 24.7818 9.25406C24.2782 9.78137 23.5998 10.1096 22.872 10.1781C21.5799 10.3608 20.3823 10.9561 19.4594 11.8745C18.5366 12.7929 17.9383 13.9847 17.7547 15.2706C17.6804 15.9934 17.3572 16.6685 16.8399 17.1813C16.3227 17.6941 15.6431 18.0133 14.9165 18.0846C13.6219 18.2691 12.4216 18.8643 11.494 19.7817C10.5664 20.6992 9.96093 21.8899 9.76753 23.1771C9.71074 23.6902 9.53365 24.183 9.25052 24.6156C8.16797 23.9759 7.19841 23.1636 6.38061 22.2111ZM15.1064 26.2641C14.0357 26.2652 12.9702 26.1168 11.9411 25.8231C12.2931 25.17 12.522 24.4582 12.6163 23.7231C12.6903 23.0018 13.012 22.328 13.5271 21.8154C14.0422 21.3028 14.7193 20.9827 15.444 20.9091C16.7368 20.7252 17.935 20.1297 18.8593 19.2118C19.7836 18.2938 20.3845 17.1027 20.5719 15.8166C20.6458 15.0953 20.9675 14.4215 21.4827 13.9089C21.9978 13.3963 22.6748 13.0762 23.3996 13.0026C24.3724 12.8766 25.2997 12.5162 26.1007 11.9526C26.5455 13.6304 26.5982 15.3873 26.2547 17.0885C25.9113 18.7897 25.1808 20.39 24.1193 21.7667C23.0579 23.1433 21.6936 24.2597 20.1313 25.0302C18.569 25.8007 16.8501 26.2048 15.1064 26.2116V26.2641Z" fill="#1D2130"/>
</g>
</svg>
