<svg width="20" height="18" viewBox="0 0 20 18" fill="none" xmlns="http://www.w3.org/2000/svg">
<path d="M6.2918 17.1197C13.8371 17.1197 17.9652 10.867 17.9652 5.4463C17.9652 5.27052 17.9613 5.09083 17.9535 4.91505C18.7566 4.3343 19.4496 3.61496 20 2.79083C19.2521 3.12358 18.458 3.3409 17.6449 3.43536C18.5011 2.92217 19.1421 2.11598 19.4492 1.16622C18.6438 1.64355 17.763 1.98026 16.8445 2.16193C16.2257 1.50439 15.4075 1.06901 14.5164 0.923127C13.6253 0.777239 12.711 0.92896 11.9148 1.35483C11.1186 1.7807 10.4848 2.45701 10.1115 3.27918C9.73825 4.10135 9.64619 5.0236 9.84961 5.90333C8.21874 5.82149 6.62328 5.39784 5.16665 4.65983C3.71002 3.92183 2.42474 2.88595 1.39414 1.61935C0.870333 2.52245 0.710047 3.59112 0.945859 4.60816C1.18167 5.6252 1.79589 6.51429 2.66367 7.09474C2.01219 7.07406 1.37498 6.89865 0.804688 6.58302V6.6338C0.804104 7.58154 1.13175 8.50024 1.73192 9.23373C2.3321 9.96721 3.16777 10.4702 4.09687 10.6572C3.49338 10.8224 2.85999 10.8464 2.2457 10.7276C2.50788 11.5426 3.01798 12.2555 3.70481 12.7667C4.39164 13.2779 5.22093 13.5619 6.07695 13.5791C4.62369 14.7207 2.82848 15.3399 0.980469 15.3369C0.652739 15.3364 0.325333 15.3163 0 15.2768C1.87738 16.4812 4.06128 17.1209 6.2918 17.1197Z" fill="#1D2130"/>
</svg>
