<svg width="18" height="18" viewBox="0 0 18 18" fill="none" xmlns="http://www.w3.org/2000/svg">
<path d="M8.88224 6.6009C9.05157 6.66363 9.2177 6.51011 9.16156 6.34677C8.77631 5.22554 7.38145 4.80728 6.08476 5.80203C5.40268 6.32535 5.14637 6.43654 5.13991 6.43935C5.58957 6.86395 6.10327 8.28876 7.22436 8.44634C8.45933 8.6578 9.55235 7.51029 8.6581 6.98519C8.06998 6.63989 7.37755 6.43931 6.63532 6.43931C7.41345 6.27365 8.19025 6.34469 8.88224 6.6009Z" fill="#FFEBB9"/>
<path d="M14.4744 5.80194C12.2361 4.08481 10.8086 6.79275 11.6959 6.52432C12.3261 6.33368 13.0151 6.29215 13.7061 6.43926C12.5352 6.43926 11.4559 6.94604 10.7363 7.77093C10.7954 6.4746 10.8848 5.66318 10.9884 5.05957C11.5865 5.04016 12.3837 4.584 12.8215 3.78581C13.5762 2.51019 13.2262 1.20226 13.1136 0.376953C12.5238 0.919308 9.94777 0.283811 8.92655 1.93655C8.47545 2.66663 8.60655 3.55504 9.08111 4.20518C9.23133 4.41099 9.59052 4.31224 9.60075 4.06247C9.64533 2.97594 10.2179 2.15503 11.2853 1.70036C10.8063 2.28648 10.4918 2.94268 10.3294 3.62092C10.0768 4.67745 9.81306 5.37051 9.7162 8.738C9.70636 9.0795 9.99929 9.36219 10.361 9.35791C10.6229 9.3548 10.8472 9.19787 10.9479 8.96956C11.101 8.62233 11.3503 8.26296 11.756 7.9337C12.1414 8.33611 12.728 8.55023 13.335 8.44628C14.4513 8.28939 14.9723 6.86147 15.4194 6.43922C15.4128 6.43649 15.1565 6.3253 14.4744 5.80194Z" fill="#FFEBB9"/>
<path d="M17.7649 9.99779C17.0651 9.54941 16.3035 9.86893 15.9538 10.0596L11.5647 13.0936L8.99474 13.0941L8.35226 12.4873H10.7124C11.4222 12.4873 12.2172 12.0507 12.2172 11.2735C12.2172 10.4484 11.4222 10.0596 10.7124 10.0596H9.82796C9.17094 10.0596 8.40314 10.115 7.86176 9.84128C7.34742 9.59409 6.75513 9.45343 6.12289 9.45343C5.06123 9.45343 4.11104 9.85315 3.45992 10.4835L0 13.7004L3.85489 17.3411L5.13985 15.5207H11.2119C11.8595 15.5207 12.4846 15.2964 12.9687 14.8902L17.8088 10.8295C18.0779 10.6037 18.0627 10.1887 17.7649 9.99779Z" fill="#FFEBB9"/>
</svg>
