<svg width="14" height="18" viewBox="0 0 14 18" fill="none" xmlns="http://www.w3.org/2000/svg">
<path d="M13.2904 6.73021L13.2633 6.69347L13.2579 6.68272L10.7931 3.02372L8.32825 6.68275L8.32312 6.69302L8.29573 6.73025C7.90023 7.26589 7.69119 7.90225 7.69119 8.57061C7.69119 10.281 9.08271 11.6725 10.7931 11.6725C12.5034 11.6725 13.8949 10.281 13.8949 8.57061C13.895 7.90222 13.6859 7.26578 13.2904 6.73021Z" fill="#FFEBB9"/>
<path d="M10.7931 12.7293C8.49996 12.7293 6.63439 10.8637 6.63439 8.57055C6.63439 7.67912 6.91209 6.82971 7.43757 6.1133L9.05789 3.70794L6.56 0L1.35563 7.72571C0.537368 8.83925 0.10498 10.1595 0.10498 11.5449C0.10498 15.1043 3.0007 18 6.56003 18C9.93254 18 12.7088 15.4002 12.991 12.0994C12.3529 12.4984 11.5996 12.7293 10.7931 12.7293Z" fill="#FFEBB9"/>
</svg>
