<svg width="19" height="18" viewBox="0 0 19 18" fill="none" xmlns="http://www.w3.org/2000/svg">
<path d="M11.5999 9.0413C11.1837 9.4186 10.7448 9.92942 10.346 10.6145C9.95189 9.26644 9.4551 8.27819 8.95293 7.55468C11.2572 0.261345 0.0273438 0 0.0273438 0C0.0273438 0 0.355157 9.1154 6.21996 8.9061C6.20802 8.29573 6.1083 7.67857 5.96858 7.09987C5.87722 6.72256 5.76854 6.36279 5.65629 6.03074C5.2813 4.92935 4.85795 4.14758 4.85795 4.14758C5.28548 4.69177 5.66405 5.21106 5.99843 5.69925C7.14906 7.37649 7.77722 8.68095 8.06921 9.36996C8.78992 10.8368 9.43718 13.2494 9.43718 17.1922C9.43718 17.6385 9.81993 18 10.2893 18C10.7598 18 11.1419 17.6385 11.1419 17.1922C11.1419 15.9143 11.0768 14.7773 10.9592 13.763C11.2309 12.5253 11.6411 11.6468 12.0657 11.0246C12.3445 10.5206 12.8586 9.65732 13.5513 8.77599C14.1681 7.99196 14.9288 7.19321 15.7892 6.623C15.7892 6.623 14.0248 8.47335 13.9107 10.2847C18.7843 10.5256 18.9736 3.26172 18.9736 3.26172C18.9736 3.26172 10.0546 3.55022 11.5999 9.0413Z" fill="#FFEBB9"/>
</svg>
