<svg width="18" height="14" viewBox="0 0 18 14" fill="none" xmlns="http://www.w3.org/2000/svg">
<path d="M17.7969 12.801C17.519 12.6079 17.2745 12.3707 17.0728 12.0989C16.5901 11.5504 15.9758 10.8702 14.8348 10.8702C13.6939 10.8702 13.1015 11.5284 12.5968 12.1209C12.0922 12.7133 11.7631 13.0643 11.0171 13.0643C10.2711 13.0643 9.8981 12.6474 9.43735 12.1209C8.97661 11.5943 8.36224 10.8702 7.19936 10.8702C6.03648 10.8702 5.46604 11.5284 4.96136 12.1209C4.45673 12.7133 4.12761 13.0643 3.38162 13.0643C2.63564 13.0643 2.26263 12.6474 1.80188 12.1209C1.48867 11.7072 1.0926 11.3635 0.638999 11.1116C0.420869 11.0025 0.155661 11.0909 0.0465957 11.309C-0.0624693 11.5272 0.0259334 11.7924 0.244063 11.9014C0.588561 12.1091 0.893203 12.3766 1.14363 12.6913C1.64826 13.2837 2.24066 13.942 3.38162 13.942C4.52258 13.942 5.11495 13.2837 5.61962 12.6913C6.12425 12.0989 6.45337 11.7479 7.19936 11.7479C7.94534 11.7479 8.31836 12.1647 8.7791 12.6913C9.23984 13.2179 9.85421 13.942 11.0171 13.942C12.18 13.942 12.7504 13.2837 13.2551 12.6913C13.7597 12.0989 14.0888 11.7479 14.8348 11.7479C15.5808 11.7479 15.9538 12.1647 16.4146 12.6913C16.6703 13.0196 16.9735 13.308 17.3141 13.547C17.5201 13.6803 17.7952 13.6214 17.9285 13.4153C18.0618 13.2093 18.0029 12.9343 17.7969 12.801Z" fill="#FFEBB9"/>
<path d="M17.7969 9.50986C17.519 9.31672 17.2745 9.07956 17.0728 8.80776C16.5901 8.25924 15.9758 7.57907 14.8348 7.57907C13.6939 7.57907 13.1015 8.23728 12.5968 8.82972C12.0922 9.42213 11.7631 9.77318 11.0171 9.77318C10.2711 9.77318 9.8981 9.35628 9.43735 8.82972C8.97661 8.30313 8.36224 7.57907 7.19936 7.57907C6.03648 7.57907 5.46604 8.23728 4.96136 8.82972C4.45673 9.42213 4.12761 9.77318 3.38162 9.77318C2.63564 9.77318 2.26263 9.35628 1.80188 8.82972C1.48867 8.41606 1.0926 8.07231 0.638999 7.82042C0.420869 7.71135 0.155661 7.79976 0.0465957 8.01789C-0.0624693 8.23602 0.0259334 8.50123 0.244063 8.61029C0.588561 8.81792 0.893203 9.08544 1.14363 9.40016C1.64826 9.99257 2.24066 10.6508 3.38162 10.6508C4.52258 10.6508 5.11495 9.99261 5.61962 9.40016C6.12425 8.80776 6.45337 8.45671 7.19936 8.45671C7.94534 8.45671 8.31836 8.87361 8.7791 9.40016C9.23984 9.92676 9.85421 10.6508 11.0171 10.6508C12.18 10.6508 12.7504 9.99261 13.2551 9.40016C13.7597 8.80776 14.0888 8.45671 14.8348 8.45671C15.5808 8.45671 15.9538 8.87361 16.4146 9.40016C16.6703 9.72849 16.9735 10.0169 17.3141 10.2558C17.5201 10.3891 17.7952 10.3302 17.9285 10.1242C18.0618 9.91823 18.0029 9.64315 17.7969 9.50986Z" fill="#FFEBB9"/>
<path d="M17.7969 5.99918C17.519 5.80604 17.2745 5.56889 17.0728 5.29709C16.5901 4.74857 15.9758 4.06839 14.8348 4.06839C13.6939 4.06839 13.1015 4.72661 12.5968 5.31905C12.0922 5.9115 11.7631 6.2625 11.0171 6.2625C10.2711 6.2625 9.8981 5.8456 9.43735 5.31905C8.97661 4.7925 8.36224 4.06839 7.19936 4.06839C6.03648 4.06839 5.46604 4.72661 4.96136 5.31905C4.45673 5.91145 4.12761 6.2625 3.38162 6.2625C2.63564 6.2625 2.26263 5.8456 1.80188 5.31905C1.48867 4.90538 1.0926 4.56164 0.638999 4.30975C0.420869 4.20068 0.155661 4.28909 0.0465957 4.50722C-0.0624693 4.72534 0.0259334 4.99055 0.244063 5.09962C0.588561 5.30725 0.893203 5.57477 1.14363 5.88949C1.64826 6.48189 2.24066 7.14015 3.38162 7.14015C4.52258 7.14015 5.11495 6.48193 5.61962 5.88949C6.12425 5.29709 6.45337 4.94604 7.19936 4.94604C7.94534 4.94604 8.31836 5.36294 8.7791 5.88949C9.23984 6.41604 9.85421 7.14015 11.0171 7.14015C12.18 7.14015 12.7504 6.48193 13.2551 5.88949C13.7598 5.29704 14.0888 4.94604 14.8348 4.94604C15.5808 4.94604 15.9538 5.36294 16.4146 5.88949C16.6703 6.21782 16.9735 6.50621 17.3141 6.74517C17.5201 6.87847 17.7952 6.81954 17.9285 6.61351C18.0618 6.40756 18.0029 6.13248 17.7969 5.99918Z" fill="#FFEBB9"/>
<path d="M0.244236 1.80857C0.588733 2.0162 0.893376 2.28372 1.1438 2.59844C1.64843 3.19084 2.24083 3.84909 3.3818 3.84909C4.52276 3.84909 5.11512 3.19088 5.61979 2.59844C6.12442 2.00604 6.45355 1.65499 7.19953 1.65499C7.94552 1.65499 8.31853 2.07189 8.77927 2.59844C9.24002 3.12503 9.85438 3.84909 11.0173 3.84909C12.1802 3.84909 12.7506 3.19088 13.2553 2.59844C13.7599 2.00604 14.089 1.65499 14.835 1.65499C15.581 1.65499 15.954 2.07189 16.4147 2.59844C16.6705 2.92677 16.9736 3.21516 17.3143 3.45416C17.5203 3.58746 17.7954 3.52849 17.9287 3.3225C18.062 3.11651 18.0031 2.84143 17.797 2.70813C17.5191 2.51499 17.2746 2.27784 17.073 2.00604C16.5902 1.45752 15.9759 0.777344 14.835 0.777344C13.694 0.777344 13.1016 1.43555 12.597 2.028C12.0923 2.6204 11.7632 2.97145 11.0172 2.97145C10.2712 2.97145 9.89823 2.55455 9.43748 2.028C8.97674 1.50141 8.36237 0.777344 7.19949 0.777344C6.03661 0.777344 5.46617 1.43555 4.96149 2.028C4.45686 2.6204 4.12774 2.97145 3.38175 2.97145C2.63577 2.97145 2.26284 2.55455 1.80205 2.02796C1.48884 1.61429 1.09278 1.27055 0.639171 1.01866C0.421041 0.909591 0.155833 0.997993 0.0467679 1.21612C-0.062297 1.43425 0.0261476 1.6995 0.244236 1.80857Z" fill="#FFEBB9"/>
</svg>
